<svg width="23" height="23" viewBox="0 0 23 23" fill="none" xmlns="http://www.w3.org/2000/svg">
<rect width="23" height="23" fill="white" fill-opacity="0.01"/>
<path fill-rule="evenodd" clip-rule="evenodd" d="M2.80001 21.4668C3.6266 21.4668 4.29668 20.7967 4.29668 19.9701V9.03012C4.29668 8.20353 3.6266 7.53345 2.80001 7.53345C1.97343 7.53345 1.30334 8.20353 1.30334 9.03012L1.30334 19.9701C1.30334 20.7967 1.97343 21.4668 2.80001 21.4668ZM8.93335 21.4668C9.75994 21.4668 10.43 20.7967 10.43 19.9701V3.03011C10.43 2.20353 9.75994 1.53345 8.93335 1.53345C8.10676 1.53345 7.43668 2.20353 7.43668 3.03011V19.9701C7.43668 20.7967 8.10676 21.4668 8.93335 21.4668ZM15.0667 8.53345C15.8933 8.53345 16.5634 9.20353 16.5634 10.0301V19.9701C16.5634 20.7967 15.8933 21.4668 15.0667 21.4668C14.2401 21.4668 13.57 20.7967 13.57 19.9701V10.0301C13.57 9.20353 14.2401 8.53345 15.0667 8.53345ZM21.2 21.4668C22.0266 21.4668 22.6967 20.7967 22.6967 19.9701V3.03011C22.6967 2.20353 22.0266 1.53345 21.2 1.53345C20.3735 1.53345 19.7034 2.20353 19.7034 3.03011V19.9701C19.7034 20.7967 20.3735 21.4668 21.2 21.4668Z" fill="#313131"/>
</svg>
