<svg width="24" height="24" viewBox="0 0 24 24" fill="none" xmlns="http://www.w3.org/2000/svg">
<g opacity="0.9">
<path fill-rule="evenodd" clip-rule="evenodd" d="M13.1642 3.60017H5.04235L4.65941 1.03459C4.62007 0.741031 4.47613 0.472923 4.25547 0.282201C4.04048 0.0951015 3.76658 -0.0051412 3.48493 0.000203188H1.16748C0.857845 0.000203188 0.560892 0.12663 0.341947 0.351672C0.123002 0.576714 0 0.881936 0 1.20019C0 1.51845 0.123002 1.82367 0.341947 2.04871C0.560892 2.27376 0.857845 2.40018 1.16748 2.40018H2.49958L4.6816 16.9633H4.68043C4.7186 17.2497 4.85627 17.5122 5.06803 17.7025C5.28532 17.8994 5.56645 18.0055 5.85608 18.0001H18.6797C18.9308 18.0001 19.1753 17.9168 19.3768 17.7627C19.5783 17.6086 19.726 17.3918 19.7981 17.1445L21.7922 10.3121C21.0009 10.7289 20.1051 10.9741 19.1543 10.9981L17.8111 15.6001H6.83793L5.40193 6.00015H13.083C13.0284 5.6749 13 5.34077 13 5C13 4.518 13.0568 4.04928 13.1642 3.60017ZM8.65595 23.2971C9.09384 22.847 9.33984 22.2365 9.33984 21.6C9.33984 20.9635 9.09384 20.3531 8.65595 19.903C8.21806 19.4529 7.62415 19.2 7.00488 19.2C6.38561 19.2 5.79171 19.4529 5.35382 19.903C4.91593 20.3531 4.66992 20.9635 4.66992 21.6C4.66992 22.2365 4.91593 22.847 5.35382 23.2971C5.79171 23.7471 6.38561 24 7.00488 24C7.62415 24 8.21806 23.7471 8.65595 23.2971ZM19.1633 23.2971C19.6012 22.847 19.8472 22.2365 19.8472 21.6C19.8472 20.9635 19.6012 20.3531 19.1633 19.903C18.7254 19.4529 18.1315 19.2 17.5122 19.2C16.8929 19.2 16.299 19.4529 15.8611 19.903C15.4232 20.3531 15.1772 20.9635 15.1772 21.6C15.1772 22.2365 15.4232 22.847 15.8611 23.2971C16.299 23.7471 16.8929 24 17.5122 24C18.1315 24 18.7254 23.7471 19.1633 23.2971Z" fill="#131313"/>
</g>
</svg>
