<svg width="349" height="403" viewBox="0 0 349 403" fill="none" xmlns="http://www.w3.org/2000/svg">
<g clip-path="url(#clip0_960_8107)">
<path fill-rule="evenodd" clip-rule="evenodd" d="M103 63.0827C63.6749 86.7637 29.8159 107.12 27.7579 108.319L24.0149 110.5L24.0089 200.5L24.0039 290.5L28.2519 293.144C30.5879 294.599 59.0499 311.867 91.4999 331.519C123.95 351.17 156.244 370.77 163.265 375.074L176.031 382.9L191.765 373.122C200.419 367.745 226.741 351.564 250.258 337.165C273.775 322.765 300.665 306.236 310.013 300.434L327.011 289.884L326.755 199.784L326.5 109.684L293.5 89.9867C199.72 34.0097 176.058 20.0007 175.314 20.0137C174.866 20.0207 142.325 39.4017 103 63.0827ZM149.833 69.3477C136.816 77.1307 113.979 90.6787 99.0829 99.4537C84.1869 108.228 71.9999 115.66 71.9999 115.967C71.9999 116.275 77.2869 119.645 83.7499 123.457C98.9889 132.444 144.542 159.498 157.924 167.509L168.348 173.75L183.924 164.224C192.491 158.985 209.535 148.644 221.8 141.243C234.065 133.842 245.489 126.618 247.186 125.19C255.465 118.223 254.889 104.933 246 97.8547C241.079 93.9367 176.084 54.9787 174.665 55.0977C174.024 55.1507 162.85 61.5637 149.833 69.3477ZM171.867 89.2557C167.414 91.3597 126 116.367 126.003 116.951C126.005 117.415 158.93 138.027 165.553 141.712L167.732 142.923L187.616 130.874C198.552 124.247 208.534 117.866 209.797 116.694L212.095 114.562L211.797 111.072L211.5 107.582L196 98.3117C179.691 88.5577 176.155 87.2307 171.867 89.2557ZM378.764 187L378.5 253H388.122H397.744L398.408 248.848L399.072 244.695L401.786 247.291C403.279 248.719 407.138 251.093 410.361 252.568L416.223 255.249L423.361 254.781L430.5 254.312L435.59 251.72C450.265 244.248 458.126 222.268 455.081 197.225C453.042 180.454 447.029 169.685 436.882 164.628L431.607 162H424.119H416.631L412.36 164.068C410.01 165.205 406.718 167.696 405.044 169.603L402 173.07V147.035V121H390.514H379.028L378.764 187ZM56.0429 208.829L56.0869 276.5L109.155 308.5C138.343 326.1 162.624 340.65 163.112 340.833C164.432 341.329 164.221 289.342 162.884 284.5C162.24 282.171 160.216 279.009 158.039 276.932L154.299 273.365L157.129 271.741C158.685 270.848 160.886 268.628 162.019 266.808L164.08 263.5L163.449 238.5C163.102 224.75 162.405 211.864 161.901 209.864L160.984 206.228L156.742 202.757C150.4 197.568 119.721 178.681 71.7499 150.432L55.9999 141.157L56.0429 208.829ZM278.5 142.83C276.3 143.856 264.825 150.566 253 157.742C241.175 164.917 222.5 176.245 211.5 182.916L191.5 195.044L191 267.022C190.725 306.61 190.588 339 190.696 339C190.803 339 197.103 335.259 204.696 330.686L218.5 322.371L218.815 302.436L219.13 282.5L249.146 264C280.173 244.878 289.082 238.119 293.765 230.153L296.5 225.5V187.956V150.412L294.736 147.72C290.878 141.831 284.658 139.958 278.5 142.83ZM488.324 163.384C479.855 166.144 471.321 173.53 467.148 181.711C462.198 191.414 460.194 212.755 463.115 224.668C466.13 236.967 473.854 246.73 484.5 251.698L490.5 254.498L501 254.489L511.5 254.48L517.747 251.605C532.028 245.032 539.968 229.445 539.992 207.934C540.015 187.981 531.347 171.741 517.186 165.207L511.5 162.584L502 162.304C495.962 162.125 490.978 162.519 488.324 163.384ZM652.435 163.89C650.199 164.906 646.714 167.19 644.691 168.967L641.013 172.196L640.549 170.848C640.294 170.107 639.954 168.15 639.793 166.5L639.5 163.5L629.75 163.214L620 162.928V224.964V287H631.5H643V266.46V245.919L645.739 248.459C647.246 249.856 650.059 251.787 651.989 252.75L655.5 254.5L663.5 254.494L671.5 254.487L676.304 252.039C685.475 247.366 692.82 237.174 695.789 225C698.932 212.113 698.067 193.6 693.787 182.161L691.675 176.515L686.087 170.933L680.5 165.352L675.572 163.676C672.752 162.717 667.619 162.009 663.572 162.022L656.5 162.044L652.435 163.89ZM738.759 163.423C733.386 165.341 730.048 167.751 728.154 171.079C726.413 174.141 725.191 174.848 725.269 172.75C725.294 172.063 725.244 169.588 725.158 167.25L725 163H715.5H706V208V253H717H728V225.148V197.296L730.274 193.922C731.524 192.066 734.004 189.566 735.785 188.366C739.28 186.011 747.612 184.425 750.942 185.482L753 186.135V174.067V162L747.75 162.044C744.862 162.068 740.817 162.689 738.759 163.423ZM777.834 164.322C768.124 168.412 761.755 175.177 757.193 186.248L754.616 192.5L754.209 206L753.801 219.5L755.483 225.963C757.554 233.922 760.6 239.236 766.202 244.666C771.815 250.107 777.429 252.91 785.469 254.288L792.003 255.407L799.042 254.2C816.579 251.192 827.184 240.132 830.53 221.358C833.106 206.902 831.917 194.897 826.806 183.759L823.712 177.018L818.357 171.953C815.411 169.167 810.864 165.924 808.251 164.745L803.5 162.602L793.5 162.269L783.5 161.935L777.834 164.322ZM536.737 166.219C537.821 168.024 542.967 176.25 548.173 184.5C553.379 192.75 558.816 201.525 560.254 204L562.869 208.5L549.486 230.75L536.103 253H548.379H560.655L565.55 242.75C568.242 237.113 571.417 230.77 572.606 228.656L574.767 224.811L582.134 238.853L589.5 252.894L602.252 253.197C609.265 253.364 615.003 253.222 615.002 252.883C615.001 252.544 609.108 243.098 601.907 231.894C594.706 220.689 588.4 210.748 587.894 209.802L586.974 208.083L597.846 188.791C603.826 178.181 609.468 168.037 610.385 166.25L612.051 163L600.276 163.018L588.5 163.037L582.597 176.768C579.35 184.321 576.369 190.871 575.973 191.324C575.577 191.777 571.879 185.702 567.756 177.824L560.259 163.5L547.513 163.219L534.766 162.939L536.737 166.219ZM412.169 182.046C410.337 182.45 407.542 184.023 405.957 185.541L403.076 188.301L401.934 193.405C401.261 196.413 400.948 204.048 401.172 212.004L401.552 225.5L403.297 228.741C405.832 233.449 409.437 235.433 415.402 235.402C422.406 235.366 426.297 233.066 429.148 227.277L431.5 222.5V208V193.5L429.5 189.565C426.163 182.998 419.992 180.321 412.169 182.046ZM497.209 182.009C493.081 182.956 490.365 185.386 487.714 190.5L485.641 194.5L485.203 206.09L484.765 217.68L486.38 223.234L487.994 228.788L491.423 231.798C499.891 239.233 511.132 235.671 515.164 224.275C516.007 221.895 516.499 215.883 516.498 208L516.496 195.5L513.998 190.517C510.499 183.536 504.283 180.387 497.209 182.009ZM653.185 181.959C648.34 183.15 645.147 186.686 643.357 192.844L641.777 198.281L642.16 211.407L642.544 224.534L644.522 227.912C645.61 229.771 647.749 232.222 649.275 233.36L652.051 235.429H657.5H662.949L665.725 233.4C669.794 230.425 672.192 224.742 673.362 215.3L674.398 206.937L673.241 199.001C672.605 194.636 671.383 189.707 670.525 188.049C667.926 183.022 660.074 180.265 653.185 181.959ZM788.643 182.031C784.856 183.162 782.237 185.64 779.693 190.5L777.599 194.5L777.182 205.438C776.935 211.923 777.256 218.564 777.969 221.751C780.705 233.976 791.937 239.389 801.115 232.904C809.016 227.321 811.488 202.26 805.402 189.436C802.505 183.33 795.157 180.084 788.643 182.031ZM252 189.72C246.225 193.348 236.669 199.282 230.764 202.908L220.029 209.5L219.764 230.251C219.619 241.663 219.546 251.001 219.603 251.001C220.724 250.995 263.436 223.89 265.683 221.758C270.597 217.095 271.204 214.591 270.833 200.502L270.5 187.822L267.694 185.411C266.151 184.085 264.351 183.028 263.694 183.062C263.037 183.096 257.775 186.092 252 189.72ZM84.2249 204.589L84.4999 220.177L107.935 234.589C120.824 242.515 132.4 249 133.659 249H135.949L137.591 245.825L139.232 242.65L138.804 234.489L138.376 226.328L136.384 222.914L134.392 219.5L109.946 204.326C96.5009 195.98 85.1509 189.117 84.7249 189.076C84.2979 189.034 84.0729 196.015 84.2249 204.589ZM84.0349 261.682L84.0699 275.5L109.231 290.643C123.069 298.972 134.947 305.574 135.626 305.313C138.874 304.067 140.174 290.692 137.629 284.718C135.658 280.093 133.801 278.71 110.5 264.517C98.9499 257.481 88.2619 250.856 86.7499 249.795L83.9999 247.864L84.0349 261.682Z" fill="#171717"/>
</g>
<defs>
<clipPath id="clip0_960_8107">
<rect width="349" height="403" fill="white"/>
</clipPath>
</defs>
</svg>
