<svg width="913" height="388" viewBox="0 0 913 388" fill="none" xmlns="http://www.w3.org/2000/svg">
<path fill-rule="evenodd" clip-rule="evenodd" d="M94.9999 58.0827C55.6749 81.7637 21.8159 102.12 19.7579 103.319L16.0149 105.5L16.0089 195.5L16.0039 285.5L20.2519 288.144C22.5879 289.599 51.0499 306.867 83.4999 326.519C115.95 346.17 148.244 365.77 155.265 370.074L168.031 377.9L183.765 368.122C192.419 362.745 218.741 346.564 242.258 332.165C265.775 317.765 292.665 301.236 302.013 295.434L319.011 284.884L318.755 194.784L318.5 104.684L285.5 84.9867C191.72 29.0097 168.058 15.0007 167.314 15.0137C166.866 15.0207 134.325 34.4017 94.9999 58.0827ZM141.833 64.3477C128.816 72.1307 105.979 85.6787 91.0829 94.4537C76.1869 103.228 63.9999 110.66 63.9999 110.967C63.9999 111.275 69.2869 114.645 75.7499 118.457C90.9889 127.444 136.542 154.498 149.924 162.509L160.348 168.75L175.924 159.224C184.491 153.985 201.535 143.644 213.8 136.243C226.065 128.842 237.489 121.618 239.186 120.19C247.465 113.223 246.889 99.9327 238 92.8547C233.079 88.9367 168.084 49.9787 166.665 50.0977C166.024 50.1507 154.85 56.5637 141.833 64.3477ZM163.867 84.2557C159.414 86.3597 118 111.367 118.003 111.951C118.005 112.415 150.93 133.027 157.553 136.712L159.732 137.923L179.616 125.874C190.552 119.247 200.534 112.866 201.797 111.694L204.095 109.562L203.797 106.072L203.5 102.582L188 93.3117C171.691 83.5577 168.155 82.2307 163.867 84.2557ZM370.764 182L370.5 248H380.122H389.744L390.408 243.848L391.072 239.695L393.786 242.291C395.279 243.719 399.138 246.093 402.361 247.568L408.223 250.249L415.361 249.781L422.5 249.312L427.59 246.72C442.265 239.248 450.126 217.268 447.081 192.225C445.042 175.454 439.029 164.685 428.882 159.628L423.607 157H416.119H408.631L404.36 159.068C402.01 160.205 398.718 162.696 397.044 164.603L394 168.07V142.035V116H382.514H371.028L370.764 182ZM48.0429 203.829L48.0869 271.5L101.155 303.5C130.343 321.1 154.624 335.65 155.112 335.833C156.432 336.329 156.221 284.342 154.884 279.5C154.24 277.171 152.216 274.009 150.039 271.932L146.299 268.365L149.129 266.741C150.685 265.848 152.886 263.628 154.019 261.808L156.08 258.5L155.449 233.5C155.102 219.75 154.405 206.864 153.901 204.864L152.984 201.228L148.742 197.757C142.4 192.568 111.721 173.681 63.7499 145.432L47.9999 136.157L48.0429 203.829ZM270.5 137.83C268.3 138.856 256.825 145.566 245 152.742C233.175 159.917 214.5 171.245 203.5 177.916L183.5 190.044L183 262.022C182.725 301.61 182.588 334 182.696 334C182.803 334 189.103 330.259 196.696 325.686L210.5 317.371L210.815 297.436L211.13 277.5L241.146 259C272.173 239.878 281.082 233.119 285.765 225.153L288.5 220.5V182.956V145.412L286.736 142.72C282.878 136.831 276.658 134.958 270.5 137.83ZM480.324 158.384C471.855 161.144 463.321 168.53 459.148 176.711C454.198 186.414 452.194 207.755 455.115 219.668C458.13 231.967 465.854 241.73 476.5 246.698L482.5 249.498L493 249.489L503.5 249.48L509.747 246.605C524.028 240.032 531.968 224.445 531.992 202.934C532.015 182.981 523.347 166.741 509.186 160.207L503.5 157.584L494 157.304C487.962 157.125 482.978 157.519 480.324 158.384ZM644.435 158.89C642.199 159.906 638.714 162.19 636.691 163.967L633.013 167.196L632.549 165.848C632.294 165.107 631.954 163.15 631.793 161.5L631.5 158.5L621.75 158.214L612 157.928V219.964V282H623.5H635V261.46V240.919L637.739 243.459C639.246 244.856 642.059 246.787 643.989 247.75L647.5 249.5L655.5 249.494L663.5 249.487L668.304 247.039C677.475 242.366 684.82 232.174 687.789 220C690.932 207.113 690.067 188.6 685.787 177.161L683.675 171.515L678.087 165.933L672.5 160.352L667.572 158.676C664.752 157.717 659.619 157.009 655.572 157.022L648.5 157.044L644.435 158.89ZM730.759 158.423C725.386 160.341 722.048 162.751 720.154 166.079C718.413 169.141 717.191 169.848 717.269 167.75C717.294 167.063 717.244 164.588 717.158 162.25L717 158H707.5H698V203V248H709H720V220.148V192.296L722.274 188.922C723.524 187.066 726.004 184.566 727.785 183.366C731.28 181.011 739.612 179.425 742.942 180.482L745 181.135V169.067V157L739.75 157.044C736.862 157.068 732.817 157.689 730.759 158.423ZM769.834 159.322C760.124 163.412 753.755 170.177 749.193 181.248L746.616 187.5L746.209 201L745.801 214.5L747.483 220.963C749.554 228.922 752.6 234.236 758.202 239.666C763.815 245.107 769.429 247.91 777.469 249.288L784.003 250.407L791.042 249.2C808.579 246.192 819.184 235.132 822.53 216.358C825.106 201.902 823.917 189.897 818.806 178.759L815.712 172.018L810.357 166.953C807.411 164.167 802.864 160.924 800.251 159.745L795.5 157.602L785.5 157.269L775.5 156.935L769.834 159.322ZM528.737 161.219C529.821 163.024 534.967 171.25 540.173 179.5C545.379 187.75 550.816 196.525 552.254 199L554.869 203.5L541.486 225.75L528.103 248H540.379H552.655L557.55 237.75C560.242 232.113 563.417 225.77 564.606 223.656L566.767 219.811L574.134 233.853L581.5 247.894L594.252 248.197C601.265 248.364 607.003 248.222 607.002 247.883C607.001 247.544 601.108 238.098 593.907 226.894C586.706 215.689 580.4 205.748 579.894 204.802L578.974 203.083L589.846 183.791C595.826 173.181 601.468 163.037 602.385 161.25L604.051 158L592.276 158.018L580.5 158.037L574.597 171.768C571.35 179.321 568.369 185.871 567.973 186.324C567.577 186.777 563.879 180.702 559.756 172.824L552.259 158.5L539.513 158.219L526.766 157.939L528.737 161.219ZM404.169 177.046C402.337 177.45 399.542 179.023 397.957 180.541L395.076 183.301L393.934 188.405C393.261 191.413 392.948 199.048 393.172 207.004L393.552 220.5L395.297 223.741C397.832 228.449 401.437 230.433 407.402 230.402C414.406 230.366 418.297 228.066 421.148 222.277L423.5 217.5V203V188.5L421.5 184.565C418.163 177.998 411.992 175.321 404.169 177.046ZM489.209 177.009C485.081 177.956 482.365 180.386 479.714 185.5L477.641 189.5L477.203 201.09L476.765 212.68L478.38 218.234L479.994 223.788L483.423 226.798C491.891 234.233 503.132 230.671 507.164 219.275C508.007 216.895 508.499 210.883 508.498 203L508.496 190.5L505.998 185.517C502.499 178.536 496.283 175.387 489.209 177.009ZM645.185 176.959C640.34 178.15 637.147 181.686 635.357 187.844L633.777 193.281L634.16 206.407L634.544 219.534L636.522 222.912C637.61 224.771 639.749 227.222 641.275 228.36L644.051 230.429H649.5H654.949L657.725 228.4C661.794 225.425 664.192 219.742 665.362 210.3L666.398 201.937L665.241 194.001C664.605 189.636 663.383 184.707 662.525 183.049C659.926 178.022 652.074 175.265 645.185 176.959ZM780.643 177.031C776.856 178.162 774.237 180.64 771.693 185.5L769.599 189.5L769.182 200.438C768.935 206.923 769.256 213.564 769.969 216.751C772.705 228.976 783.937 234.389 793.115 227.904C801.016 222.321 803.488 197.26 797.402 184.436C794.505 178.33 787.157 175.084 780.643 177.031ZM244 184.72C238.225 188.348 228.669 194.282 222.764 197.908L212.029 204.5L211.764 225.251C211.619 236.663 211.546 246.001 211.603 246.001C212.724 245.995 255.436 218.89 257.683 216.758C262.597 212.095 263.204 209.591 262.833 195.502L262.5 182.822L259.694 180.411C258.151 179.085 256.351 178.028 255.694 178.062C255.037 178.096 249.775 181.092 244 184.72ZM76.2249 199.589L76.4999 215.177L99.9349 229.589C112.824 237.515 124.4 244 125.659 244H127.949L129.591 240.825L131.232 237.65L130.804 229.489L130.376 221.328L128.384 217.914L126.392 214.5L101.946 199.326C88.5009 190.98 77.1509 184.117 76.7249 184.076C76.2979 184.034 76.0729 191.015 76.2249 199.589ZM76.0349 256.682L76.0699 270.5L101.231 285.643C115.069 293.972 126.947 300.574 127.626 300.313C130.874 299.067 132.174 285.692 129.629 279.718C127.658 275.093 125.801 273.71 102.5 259.517C90.9499 252.481 80.2619 245.856 78.7499 244.795L75.9999 242.864L76.0349 256.682Z" fill="#F7F7F7"/>
</svg>
