<svg width="403" height="403" viewBox="0 0 403 403" fill="none" xmlns="http://www.w3.org/2000/svg">
<g clip-path="url(#clip0_960_8107)">
<rect width="403" height="403" rx="22" fill="#F7F7F7"/>
<path fill-rule="evenodd" clip-rule="evenodd" d="M130 63.0827C90.6749 86.7637 56.8159 107.12 54.7579 108.319L51.0149 110.5L51.0089 200.5L51.0039 290.5L55.2519 293.144C57.5879 294.599 86.0499 311.867 118.5 331.519C150.95 351.17 183.244 370.77 190.265 375.074L203.031 382.9L218.765 373.122C227.419 367.745 253.741 351.564 277.258 337.165C300.775 322.765 327.665 306.236 337.013 300.434L354.011 289.884L353.755 199.784L353.5 109.684L320.5 89.9867C226.72 34.0097 203.058 20.0007 202.314 20.0137C201.866 20.0207 169.325 39.4017 130 63.0827ZM176.833 69.3477C163.816 77.1307 140.979 90.6787 126.083 99.4537C111.187 108.228 98.9999 115.66 98.9999 115.967C98.9999 116.275 104.287 119.645 110.75 123.457C125.989 132.444 171.542 159.498 184.924 167.509L195.348 173.75L210.924 164.224C219.491 158.985 236.535 148.644 248.8 141.243C261.065 133.842 272.489 126.618 274.186 125.19C282.465 118.223 281.889 104.933 273 97.8547C268.079 93.9367 203.084 54.9787 201.665 55.0977C201.024 55.1507 189.85 61.5637 176.833 69.3477ZM198.867 89.2557C194.414 91.3597 153 116.367 153.003 116.951C153.005 117.415 185.93 138.027 192.553 141.712L194.732 142.923L214.616 130.874C225.552 124.247 235.534 117.866 236.797 116.694L239.095 114.562L238.797 111.072L238.5 107.582L223 98.3117C206.691 88.5577 203.155 87.2307 198.867 89.2557ZM405.764 187L405.5 253H415.122H424.744L425.408 248.848L426.072 244.695L428.786 247.291C430.279 248.719 434.138 251.093 437.361 252.568L443.223 255.249L450.361 254.781L457.5 254.312L462.59 251.72C477.265 244.248 485.126 222.268 482.081 197.225C480.042 180.454 474.029 169.685 463.882 164.628L458.607 162H451.119H443.631L439.36 164.068C437.01 165.205 433.718 167.696 432.044 169.603L429 173.07V147.035V121H417.514H406.028L405.764 187ZM83.0429 208.829L83.0869 276.5L136.155 308.5C165.343 326.1 189.624 340.65 190.112 340.833C191.432 341.329 191.221 289.342 189.884 284.5C189.24 282.171 187.216 279.009 185.039 276.932L181.299 273.365L184.129 271.741C185.685 270.848 187.886 268.628 189.019 266.808L191.08 263.5L190.449 238.5C190.102 224.75 189.405 211.864 188.901 209.864L187.984 206.228L183.742 202.757C177.4 197.568 146.721 178.681 98.7499 150.432L82.9999 141.157L83.0429 208.829ZM305.5 142.83C303.3 143.856 291.825 150.566 280 157.742C268.175 164.917 249.5 176.245 238.5 182.916L218.5 195.044L218 267.022C217.725 306.61 217.588 339 217.696 339C217.803 339 224.103 335.259 231.696 330.686L245.5 322.371L245.815 302.436L246.13 282.5L276.146 264C307.173 244.878 316.082 238.119 320.765 230.153L323.5 225.5V187.956V150.412L321.736 147.72C317.878 141.831 311.658 139.958 305.5 142.83ZM515.324 163.384C506.855 166.144 498.321 173.53 494.148 181.711C489.198 191.414 487.194 212.755 490.115 224.668C493.13 236.967 500.854 246.73 511.5 251.698L517.5 254.498L528 254.489L538.5 254.48L544.747 251.605C559.028 245.032 566.968 229.445 566.992 207.934C567.015 187.981 558.347 171.741 544.186 165.207L538.5 162.584L529 162.304C522.962 162.125 517.978 162.519 515.324 163.384ZM679.435 163.89C677.199 164.906 673.714 167.19 671.691 168.967L668.013 172.196L667.549 170.848C667.294 170.107 666.954 168.15 666.793 166.5L666.5 163.5L656.75 163.214L647 162.928V224.964V287H658.5H670V266.46V245.919L672.739 248.459C674.246 249.856 677.059 251.787 678.989 252.75L682.5 254.5L690.5 254.494L698.5 254.487L703.304 252.039C712.475 247.366 719.82 237.174 722.789 225C725.932 212.113 725.067 193.6 720.787 182.161L718.675 176.515L713.087 170.933L707.5 165.352L702.572 163.676C699.752 162.717 694.619 162.009 690.572 162.022L683.5 162.044L679.435 163.89ZM765.759 163.423C760.386 165.341 757.048 167.751 755.154 171.079C753.413 174.141 752.191 174.848 752.269 172.75C752.294 172.063 752.244 169.588 752.158 167.25L752 163H742.5H733V208V253H744H755V225.148V197.296L757.274 193.922C758.524 192.066 761.004 189.566 762.785 188.366C766.28 186.011 774.612 184.425 777.942 185.482L780 186.135V174.067V162L774.75 162.044C771.862 162.068 767.817 162.689 765.759 163.423ZM804.834 164.322C795.124 168.412 788.755 175.177 784.193 186.248L781.616 192.5L781.209 206L780.801 219.5L782.483 225.963C784.554 233.922 787.6 239.236 793.202 244.666C798.815 250.107 804.429 252.91 812.469 254.288L819.003 255.407L826.042 254.2C843.579 251.192 854.184 240.132 857.53 221.358C860.106 206.902 858.917 194.897 853.806 183.759L850.712 177.018L845.357 171.953C842.411 169.167 837.864 165.924 835.251 164.745L830.5 162.602L820.5 162.269L810.5 161.935L804.834 164.322ZM563.737 166.219C564.821 168.024 569.967 176.25 575.173 184.5C580.379 192.75 585.816 201.525 587.254 204L589.869 208.5L576.486 230.75L563.103 253H575.379H587.655L592.55 242.75C595.242 237.113 598.417 230.77 599.606 228.656L601.767 224.811L609.134 238.853L616.5 252.894L629.252 253.197C636.265 253.364 642.003 253.222 642.002 252.883C642.001 252.544 636.108 243.098 628.907 231.894C621.706 220.689 615.4 210.748 614.894 209.802L613.974 208.083L624.846 188.791C630.826 178.181 636.468 168.037 637.385 166.25L639.051 163L627.276 163.018L615.5 163.037L609.597 176.768C606.35 184.321 603.369 190.871 602.973 191.324C602.577 191.777 598.879 185.702 594.756 177.824L587.259 163.5L574.513 163.219L561.766 162.939L563.737 166.219ZM439.169 182.046C437.337 182.45 434.542 184.023 432.957 185.541L430.076 188.301L428.934 193.405C428.261 196.413 427.948 204.048 428.172 212.004L428.552 225.5L430.297 228.741C432.832 233.449 436.437 235.433 442.402 235.402C449.406 235.366 453.297 233.066 456.148 227.277L458.5 222.5V208V193.5L456.5 189.565C453.163 182.998 446.992 180.321 439.169 182.046ZM524.209 182.009C520.081 182.956 517.365 185.386 514.714 190.5L512.641 194.5L512.203 206.09L511.765 217.68L513.38 223.234L514.994 228.788L518.423 231.798C526.891 239.233 538.132 235.671 542.164 224.275C543.007 221.895 543.499 215.883 543.498 208L543.496 195.5L540.998 190.517C537.499 183.536 531.283 180.387 524.209 182.009ZM680.185 181.959C675.34 183.15 672.147 186.686 670.357 192.844L668.777 198.281L669.16 211.407L669.544 224.534L671.522 227.912C672.61 229.771 674.749 232.222 676.275 233.36L679.051 235.429H684.5H689.949L692.725 233.4C696.794 230.425 699.192 224.742 700.362 215.3L701.398 206.937L700.241 199.001C699.605 194.636 698.383 189.707 697.525 188.049C694.926 183.022 687.074 180.265 680.185 181.959ZM815.643 182.031C811.856 183.162 809.237 185.64 806.693 190.5L804.599 194.5L804.182 205.438C803.935 211.923 804.256 218.564 804.969 221.751C807.705 233.976 818.937 239.389 828.115 232.904C836.016 227.321 838.488 202.26 832.402 189.436C829.505 183.33 822.157 180.084 815.643 182.031ZM279 189.72C273.225 193.348 263.669 199.282 257.764 202.908L247.029 209.5L246.764 230.251C246.619 241.663 246.546 251.001 246.603 251.001C247.724 250.995 290.436 223.89 292.683 221.758C297.597 217.095 298.204 214.591 297.833 200.502L297.5 187.822L294.694 185.411C293.151 184.085 291.351 183.028 290.694 183.062C290.037 183.096 284.775 186.092 279 189.72ZM111.225 204.589L111.5 220.177L134.935 234.589C147.824 242.515 159.4 249 160.659 249H162.949L164.591 245.825L166.232 242.65L165.804 234.489L165.376 226.328L163.384 222.914L161.392 219.5L136.946 204.326C123.501 195.98 112.151 189.117 111.725 189.076C111.298 189.034 111.073 196.015 111.225 204.589ZM111.035 261.682L111.07 275.5L136.231 290.643C150.069 298.972 161.947 305.574 162.626 305.313C165.874 304.067 167.174 290.692 164.629 284.718C162.658 280.093 160.801 278.71 137.5 264.517C125.95 257.481 115.262 250.856 113.75 249.795L111 247.864L111.035 261.682Z" fill="#171717"/>
</g>
<defs>
<clipPath id="clip0_960_8107">
<rect width="403" height="403" rx="22" fill="white"/>
</clipPath>
</defs>
</svg>
