<svg width="62" height="62" viewBox="0 0 62 62" fill="none" xmlns="http://www.w3.org/2000/svg">
<rect x="1" y="1" width="60" height="60" rx="8" fill="#00C8E0"/>
<path d="M0.4924 31.9636C0.775392 14.7011 14.7011 0.775392 31.9636 0.4924L53.7344 0.135501C58.2549 0.0613953 61.9386 3.74511 61.8645 8.26556L61.5076 30.0364C61.2246 47.2989 47.2989 61.2246 30.0364 61.5076L8.26556 61.8645C3.74511 61.9386 0.0613952 58.2549 0.135501 53.7344L0.4924 31.9636Z" fill="#2E518B"/>
<g clip-path="url(#clip0_576_8134)">
<path d="M48.4009 29.7573C49.0488 29.7573 49.6967 29.5905 50.3446 29.2569C51.6554 28.5593 52.3108 27.3764 52.3108 25.7081C52.3108 24.0097 51.6554 22.8267 50.3446 22.1595C49.6967 21.8107 49.0488 21.6363 48.4009 21.6363H38.1855V29.7573H48.4009ZM38.1855 48.0014H32.332V15.5625H48.4009C50.0282 15.5625 51.6554 15.9871 53.2826 16.8364C56.5371 18.5198 58.1643 21.477 58.1643 25.7081C58.1643 28.0285 57.6521 29.9773 56.6276 31.5545C55.8139 32.8284 54.699 33.8368 53.2826 34.58C51.6554 35.414 50.0282 35.8311 48.4009 35.8311H38.1855V48.0014Z" fill="#FBFBFB"/>
</g>
<g clip-path="url(#clip1_576_8134)">
<path d="M18.4351 48.0014H6.33008V41.9276H18.4351C22.0201 41.9276 23.8126 40.7902 23.8126 38.5154C23.8126 37.2263 22.9051 36.2785 21.0901 35.6719C20.3251 35.414 19.1326 35.0956 17.5126 34.7165C16.6425 34.4889 15.8326 34.2691 15.0826 34.0567C12.4126 33.2833 10.4026 32.3658 9.05258 31.3043C7.23758 29.8635 6.33008 27.9981 6.33008 25.7081C6.33008 22.5841 7.38758 20.1121 9.50258 18.2923C11.6326 16.4724 14.3101 15.5625 17.5351 15.5625H28.7401V21.6363H17.5351C13.9501 21.6363 12.1576 22.7585 12.1576 25.003C12.1576 26.3224 13.0651 27.2853 14.8801 27.892C16.0201 28.2408 17.2201 28.5593 18.4801 28.8474L20.91 29.5071C23.5651 30.2806 25.5676 31.1981 26.9176 32.2596C28.7326 33.7003 29.6401 35.5657 29.6401 37.8557C29.6401 42.0868 27.6976 45.0441 23.8126 46.7275C21.8776 47.5767 20.0851 48.0014 18.4351 48.0014Z" fill="#FBFBFB"/>
</g>
<defs>
<clipPath id="clip0_576_8134">
<rect width="27" height="33" fill="white" transform="translate(32 15)"/>
</clipPath>
<clipPath id="clip1_576_8134">
<rect width="24" height="33" fill="white" transform="translate(6 15)"/>
</clipPath>
</defs>
</svg>
