<svg width="521" height="221" viewBox="0 0 521 221" fill="none" xmlns="http://www.w3.org/2000/svg">
<rect opacity="0.4" width="521" height="221" rx="12" fill="#D9D9D9"/>
<path d="M85.5684 168.49V169.557C85.5684 170.254 85.4772 170.885 85.2949 171.45C85.1172 172.011 84.8574 172.492 84.5156 172.893C84.1784 173.294 83.7728 173.601 83.2988 173.815C82.8249 174.03 82.2917 174.137 81.6992 174.137C81.1204 174.137 80.5918 174.03 80.1133 173.815C79.6393 173.601 79.2314 173.294 78.8896 172.893C78.5479 172.492 78.2835 172.011 78.0967 171.45C77.9098 170.885 77.8164 170.254 77.8164 169.557V168.49C77.8164 167.793 77.9076 167.164 78.0898 166.604C78.2767 166.038 78.541 165.555 78.8828 165.154C79.2246 164.753 79.6325 164.446 80.1064 164.231C80.5804 164.017 81.1068 163.91 81.6855 163.91C82.278 163.91 82.8112 164.017 83.2852 164.231C83.7591 164.446 84.167 164.753 84.5088 165.154C84.8506 165.555 85.1126 166.038 85.2949 166.604C85.4772 167.164 85.5684 167.793 85.5684 168.49ZM84.7344 169.557V168.477C84.7344 167.889 84.666 167.36 84.5293 166.891C84.3971 166.421 84.1989 166.02 83.9346 165.688C83.6748 165.355 83.3558 165.1 82.9775 164.922C82.5993 164.744 82.1686 164.655 81.6855 164.655C81.2161 164.655 80.7946 164.744 80.4209 164.922C80.0472 165.1 79.7282 165.355 79.4639 165.688C79.2041 166.02 79.0036 166.421 78.8623 166.891C78.7256 167.36 78.6572 167.889 78.6572 168.477V169.557C78.6572 170.149 78.7256 170.682 78.8623 171.156C79.0036 171.626 79.2064 172.029 79.4707 172.366C79.735 172.699 80.054 172.954 80.4277 173.132C80.806 173.31 81.2298 173.398 81.6992 173.398C82.1868 173.398 82.6175 173.31 82.9912 173.132C83.3649 172.954 83.6816 172.699 83.9414 172.366C84.2012 172.029 84.3971 171.626 84.5293 171.156C84.666 170.682 84.7344 170.149 84.7344 169.557ZM92.3018 163.384H93.0059C93.0059 163.726 92.9443 164.01 92.8213 164.238C92.7028 164.466 92.5342 164.651 92.3154 164.792C92.0967 164.933 91.8392 165.045 91.543 165.127C91.2513 165.204 90.9323 165.271 90.5859 165.325C90.1621 165.389 89.7725 165.528 89.417 165.742C89.0661 165.956 88.7653 166.25 88.5146 166.624C88.264 166.993 88.0749 167.451 87.9473 167.998C87.8242 168.54 87.7741 169.176 87.7969 169.905V170.541H87.0928V169.905C87.0928 169.103 87.1702 168.392 87.3252 167.772C87.4847 167.148 87.7103 166.615 88.002 166.173C88.2982 165.731 88.6491 165.38 89.0547 165.12C89.4648 164.856 89.9183 164.683 90.415 164.601C90.8799 164.528 91.249 164.439 91.5225 164.334C91.8005 164.229 91.9987 164.099 92.1172 163.944C92.2402 163.789 92.3018 163.603 92.3018 163.384ZM90.4834 167.089C90.9665 167.089 91.4017 167.171 91.7891 167.335C92.1764 167.499 92.5068 167.731 92.7803 168.032C93.0583 168.328 93.2702 168.679 93.416 169.085C93.5664 169.486 93.6416 169.926 93.6416 170.404V170.623C93.6416 171.133 93.5641 171.603 93.4092 172.031C93.2588 172.46 93.04 172.831 92.7529 173.146C92.4704 173.46 92.1263 173.704 91.7207 173.877C91.3197 174.05 90.8708 174.137 90.374 174.137C89.8727 174.137 89.4215 174.05 89.0205 173.877C88.6195 173.704 88.2754 173.46 87.9883 173.146C87.7012 172.831 87.4801 172.46 87.3252 172.031C87.1702 171.603 87.0928 171.133 87.0928 170.623V170.404C87.0928 170.272 87.1064 170.142 87.1338 170.015C87.1657 169.887 87.2044 169.762 87.25 169.639C87.2956 169.511 87.3411 169.386 87.3867 169.263C87.5462 168.848 87.7718 168.479 88.0635 168.155C88.3551 167.827 88.7038 167.567 89.1094 167.376C89.5195 167.185 89.9775 167.089 90.4834 167.089ZM90.3604 167.786C89.8271 167.786 89.3783 167.909 89.0137 168.155C88.6536 168.397 88.3802 168.718 88.1934 169.119C88.0065 169.516 87.9131 169.944 87.9131 170.404V170.623C87.9131 171.001 87.9655 171.359 88.0703 171.696C88.1751 172.034 88.3301 172.334 88.5352 172.599C88.7448 172.858 89.0023 173.063 89.3076 173.214C89.613 173.364 89.9684 173.439 90.374 173.439C90.7751 173.439 91.1283 173.364 91.4336 173.214C91.7389 173.063 91.9941 172.858 92.1992 172.599C92.4043 172.334 92.5592 172.034 92.6641 171.696C92.7689 171.359 92.8213 171.001 92.8213 170.623V170.404C92.8213 170.058 92.7689 169.728 92.6641 169.413C92.5592 169.099 92.402 168.821 92.1924 168.579C91.9873 168.333 91.7298 168.139 91.4199 167.998C91.1146 167.857 90.7614 167.786 90.3604 167.786ZM94.7627 170.418V170.192C94.7627 169.655 94.8402 169.158 94.9951 168.702C95.1501 168.246 95.3711 167.852 95.6582 167.52C95.9499 167.187 96.2985 166.929 96.7041 166.747C97.1097 166.56 97.5609 166.467 98.0576 166.467C98.5589 166.467 99.0124 166.56 99.418 166.747C99.8236 166.929 100.172 167.187 100.464 167.52C100.756 167.852 100.979 168.246 101.134 168.702C101.289 169.158 101.366 169.655 101.366 170.192V170.418C101.366 170.956 101.289 171.452 101.134 171.908C100.979 172.359 100.756 172.751 100.464 173.084C100.177 173.417 99.8304 173.676 99.4248 173.863C99.0192 174.046 98.568 174.137 98.0713 174.137C97.57 174.137 97.1165 174.046 96.7109 173.863C96.3053 173.676 95.9567 173.417 95.665 173.084C95.3734 172.751 95.1501 172.359 94.9951 171.908C94.8402 171.452 94.7627 170.956 94.7627 170.418ZM95.5762 170.192V170.418C95.5762 170.824 95.6309 171.209 95.7402 171.573C95.8496 171.933 96.0091 172.255 96.2188 172.537C96.4284 172.815 96.6882 173.034 96.998 173.193C97.3079 173.353 97.6657 173.433 98.0713 173.433C98.4723 173.433 98.8255 173.353 99.1309 173.193C99.4408 173.034 99.7005 172.815 99.9102 172.537C100.12 172.255 100.277 171.933 100.382 171.573C100.491 171.209 100.546 170.824 100.546 170.418V170.192C100.546 169.791 100.491 169.411 100.382 169.051C100.277 168.691 100.118 168.369 99.9033 168.087C99.6937 167.804 99.4339 167.581 99.124 167.417C98.8141 167.253 98.4587 167.171 98.0576 167.171C97.6566 167.171 97.3011 167.253 96.9912 167.417C96.6859 167.581 96.4261 167.804 96.2119 168.087C96.0023 168.369 95.8428 168.691 95.7334 169.051C95.6286 169.411 95.5762 169.791 95.5762 170.192ZM103.868 168.025V176.844H103.048V166.604H103.813L103.868 168.025ZM109.009 170.233V170.377C109.009 170.928 108.945 171.434 108.817 171.895C108.69 172.355 108.505 172.754 108.264 173.091C108.027 173.424 107.733 173.681 107.382 173.863C107.031 174.046 106.632 174.137 106.186 174.137C105.743 174.137 105.349 174.068 105.003 173.932C104.657 173.795 104.358 173.601 104.107 173.351C103.861 173.095 103.663 172.799 103.513 172.462C103.367 172.12 103.264 171.746 103.205 171.341V169.447C103.273 169.001 103.385 168.595 103.54 168.23C103.695 167.866 103.893 167.551 104.135 167.287C104.381 167.023 104.673 166.82 105.01 166.679C105.347 166.537 105.732 166.467 106.165 166.467C106.616 166.467 107.017 166.556 107.368 166.733C107.724 166.907 108.022 167.16 108.264 167.492C108.51 167.82 108.694 168.217 108.817 168.682C108.945 169.142 109.009 169.659 109.009 170.233ZM108.188 170.377V170.233C108.188 169.8 108.143 169.399 108.052 169.03C107.965 168.661 107.831 168.34 107.648 168.066C107.471 167.788 107.243 167.572 106.965 167.417C106.691 167.262 106.366 167.185 105.987 167.185C105.595 167.185 105.26 167.251 104.982 167.383C104.709 167.51 104.481 167.681 104.299 167.896C104.117 168.105 103.973 168.335 103.868 168.586C103.763 168.837 103.686 169.083 103.636 169.324V171.505C103.722 171.851 103.861 172.173 104.053 172.469C104.244 172.76 104.499 172.995 104.818 173.173C105.142 173.346 105.536 173.433 106.001 173.433C106.375 173.433 106.698 173.355 106.972 173.2C107.245 173.045 107.471 172.829 107.648 172.551C107.831 172.273 107.965 171.949 108.052 171.58C108.143 171.211 108.188 170.81 108.188 170.377ZM112.939 173.262L115.243 166.604H116.125L112.994 175.189C112.93 175.358 112.848 175.545 112.748 175.75C112.652 175.955 112.525 176.151 112.365 176.338C112.21 176.529 112.014 176.684 111.777 176.803C111.545 176.926 111.26 176.987 110.923 176.987C110.836 176.987 110.725 176.976 110.588 176.953C110.456 176.935 110.36 176.917 110.301 176.898L110.294 176.208C110.344 176.222 110.417 176.233 110.513 176.242C110.608 176.251 110.674 176.256 110.711 176.256C111.007 176.256 111.256 176.206 111.456 176.105C111.661 176.005 111.832 175.855 111.969 175.654C112.105 175.458 112.226 175.212 112.331 174.916L112.939 173.262ZM110.786 166.604L113.145 172.954L113.363 173.809L112.769 174.144L109.897 166.604H110.786ZM118.333 166.604H119.146L119.023 169.27C118.992 169.98 118.912 170.598 118.784 171.122C118.661 171.642 118.508 172.086 118.326 172.455C118.144 172.82 117.943 173.127 117.725 173.378C117.51 173.624 117.292 173.831 117.068 174H116.624L116.638 173.303L116.843 173.296C116.975 173.136 117.112 172.956 117.253 172.756C117.399 172.551 117.538 172.3 117.67 172.004C117.802 171.708 117.916 171.339 118.012 170.896C118.107 170.454 118.171 169.912 118.203 169.27L118.333 166.604ZM118.6 166.604H122.694V174H121.881V167.369H118.6V166.604ZM116.31 173.296H123.467V176.174H122.646V174H117.089V176.174H116.31V173.296ZM124.595 170.418V170.192C124.595 169.655 124.672 169.158 124.827 168.702C124.982 168.246 125.203 167.852 125.49 167.52C125.782 167.187 126.131 166.929 126.536 166.747C126.942 166.56 127.393 166.467 127.89 166.467C128.391 166.467 128.844 166.56 129.25 166.747C129.656 166.929 130.004 167.187 130.296 167.52C130.588 167.852 130.811 168.246 130.966 168.702C131.121 169.158 131.198 169.655 131.198 170.192V170.418C131.198 170.956 131.121 171.452 130.966 171.908C130.811 172.359 130.588 172.751 130.296 173.084C130.009 173.417 129.662 173.676 129.257 173.863C128.851 174.046 128.4 174.137 127.903 174.137C127.402 174.137 126.949 174.046 126.543 173.863C126.137 173.676 125.789 173.417 125.497 173.084C125.205 172.751 124.982 172.359 124.827 171.908C124.672 171.452 124.595 170.956 124.595 170.418ZM125.408 170.192V170.418C125.408 170.824 125.463 171.209 125.572 171.573C125.682 171.933 125.841 172.255 126.051 172.537C126.26 172.815 126.52 173.034 126.83 173.193C127.14 173.353 127.498 173.433 127.903 173.433C128.304 173.433 128.658 173.353 128.963 173.193C129.273 173.034 129.533 172.815 129.742 172.537C129.952 172.255 130.109 171.933 130.214 171.573C130.323 171.209 130.378 170.824 130.378 170.418V170.192C130.378 169.791 130.323 169.411 130.214 169.051C130.109 168.691 129.95 168.369 129.735 168.087C129.526 167.804 129.266 167.581 128.956 167.417C128.646 167.253 128.291 167.171 127.89 167.171C127.489 167.171 127.133 167.253 126.823 167.417C126.518 167.581 126.258 167.804 126.044 168.087C125.834 168.369 125.675 168.691 125.565 169.051C125.461 169.411 125.408 169.791 125.408 170.192ZM136.161 170.589H133.563L133.55 169.905H135.765C136.211 169.905 136.583 169.857 136.879 169.762C137.18 169.661 137.405 169.513 137.556 169.317C137.711 169.121 137.788 168.88 137.788 168.593C137.788 168.374 137.743 168.183 137.651 168.019C137.565 167.854 137.433 167.72 137.255 167.615C137.082 167.51 136.863 167.433 136.599 167.383C136.339 167.328 136.036 167.301 135.689 167.301H133.796V174H132.982V166.604H135.689C136.141 166.604 136.544 166.645 136.899 166.727C137.259 166.804 137.567 166.923 137.822 167.082C138.077 167.242 138.271 167.447 138.403 167.697C138.54 167.943 138.608 168.235 138.608 168.572C138.608 168.8 138.565 169.014 138.479 169.215C138.392 169.411 138.264 169.589 138.096 169.748C137.932 169.903 137.729 170.031 137.487 170.131C137.246 170.227 136.968 170.286 136.653 170.309L136.161 170.589ZM136.161 174H133.311L133.625 173.303H136.161C136.571 173.303 136.92 173.25 137.207 173.146C137.494 173.041 137.711 172.886 137.856 172.681C138.007 172.476 138.082 172.227 138.082 171.936C138.082 171.662 138.007 171.425 137.856 171.225C137.711 171.024 137.494 170.869 137.207 170.76C136.92 170.646 136.571 170.589 136.161 170.589H134.274L134.288 169.905H136.715L137.063 170.165C137.437 170.197 137.761 170.297 138.034 170.466C138.308 170.634 138.52 170.849 138.67 171.108C138.82 171.364 138.896 171.644 138.896 171.949C138.896 172.286 138.832 172.585 138.704 172.845C138.576 173.1 138.392 173.314 138.15 173.487C137.913 173.656 137.626 173.784 137.289 173.87C136.952 173.957 136.576 174 136.161 174ZM145.226 172.674V168.859C145.226 168.508 145.153 168.205 145.007 167.95C144.861 167.695 144.647 167.499 144.364 167.362C144.082 167.226 143.733 167.157 143.318 167.157C142.936 167.157 142.594 167.226 142.293 167.362C141.997 167.494 141.762 167.674 141.589 167.902C141.42 168.126 141.336 168.374 141.336 168.647L140.516 168.641C140.516 168.363 140.584 168.094 140.721 167.834C140.857 167.574 141.051 167.342 141.302 167.137C141.552 166.932 141.851 166.77 142.197 166.651C142.548 166.528 142.933 166.467 143.353 166.467C143.881 166.467 144.346 166.556 144.747 166.733C145.153 166.911 145.469 167.178 145.697 167.533C145.925 167.889 146.039 168.335 146.039 168.873V172.448C146.039 172.703 146.057 172.968 146.094 173.241C146.135 173.515 146.192 173.74 146.265 173.918V174H145.396C145.342 173.836 145.299 173.631 145.267 173.385C145.239 173.134 145.226 172.897 145.226 172.674ZM145.417 169.693L145.431 170.322H143.824C143.405 170.322 143.029 170.361 142.696 170.438C142.368 170.511 142.09 170.621 141.862 170.767C141.634 170.908 141.459 171.079 141.336 171.279C141.217 171.48 141.158 171.708 141.158 171.963C141.158 172.227 141.224 172.469 141.356 172.688C141.493 172.906 141.685 173.082 141.931 173.214C142.181 173.341 142.478 173.405 142.819 173.405C143.275 173.405 143.676 173.321 144.022 173.152C144.373 172.984 144.663 172.763 144.891 172.489C145.118 172.216 145.271 171.917 145.349 171.594L145.704 172.065C145.645 172.293 145.535 172.528 145.376 172.77C145.221 173.007 145.018 173.23 144.768 173.439C144.517 173.645 144.221 173.813 143.879 173.945C143.542 174.073 143.159 174.137 142.73 174.137C142.247 174.137 141.826 174.046 141.466 173.863C141.11 173.681 140.832 173.433 140.632 173.118C140.436 172.799 140.338 172.439 140.338 172.038C140.338 171.674 140.415 171.348 140.57 171.061C140.725 170.769 140.949 170.523 141.24 170.322C141.536 170.117 141.892 169.962 142.307 169.857C142.726 169.748 143.195 169.693 143.715 169.693H145.417ZM153.278 169.912V170.609H148.89V169.912H153.278ZM149.102 166.604V174H148.288V166.604H149.102ZM153.907 166.604V174H153.087V166.604H153.907ZM156.97 172.674L160.969 166.604H161.789V174H160.969V167.93L156.97 174H156.163V166.604H156.97V172.674ZM166.841 174.137C166.358 174.137 165.913 174.048 165.508 173.87C165.107 173.692 164.756 173.442 164.455 173.118C164.159 172.795 163.929 172.412 163.765 171.97C163.605 171.523 163.525 171.035 163.525 170.507V170.213C163.525 169.643 163.61 169.128 163.778 168.668C163.947 168.208 164.179 167.813 164.476 167.485C164.772 167.157 165.109 166.907 165.487 166.733C165.87 166.556 166.271 166.467 166.69 166.467C167.16 166.467 167.577 166.551 167.941 166.72C168.306 166.884 168.611 167.118 168.857 167.424C169.108 167.725 169.297 168.082 169.425 168.497C169.552 168.907 169.616 169.361 169.616 169.857V170.356H164.018V169.659H168.803V169.563C168.794 169.149 168.709 168.761 168.55 168.401C168.395 168.037 168.162 167.741 167.853 167.513C167.543 167.285 167.155 167.171 166.69 167.171C166.344 167.171 166.025 167.244 165.733 167.39C165.446 167.535 165.198 167.745 164.988 168.019C164.783 168.287 164.624 168.609 164.51 168.982C164.4 169.352 164.346 169.762 164.346 170.213V170.507C164.346 170.917 164.405 171.3 164.523 171.655C164.646 172.006 164.82 172.316 165.043 172.585C165.271 172.854 165.54 173.063 165.85 173.214C166.16 173.364 166.501 173.439 166.875 173.439C167.312 173.439 167.7 173.36 168.037 173.2C168.374 173.036 168.677 172.779 168.946 172.428L169.459 172.824C169.299 173.061 169.099 173.28 168.857 173.48C168.62 173.681 168.336 173.84 168.003 173.959C167.67 174.077 167.283 174.137 166.841 174.137ZM175.509 172.674L179.508 166.604H180.328V174H179.508V167.93L175.509 174H174.702V166.604H175.509V172.674ZM188.668 173.433C189.014 173.433 189.338 173.369 189.639 173.241C189.944 173.109 190.195 172.915 190.391 172.66C190.591 172.4 190.705 172.084 190.732 171.71H191.512C191.489 172.179 191.345 172.599 191.081 172.968C190.821 173.332 190.479 173.619 190.056 173.829C189.636 174.034 189.174 174.137 188.668 174.137C188.153 174.137 187.697 174.043 187.301 173.856C186.909 173.67 186.581 173.41 186.316 173.077C186.052 172.74 185.852 172.348 185.715 171.901C185.583 171.45 185.517 170.965 185.517 170.445V170.158C185.517 169.639 185.583 169.156 185.715 168.709C185.852 168.258 186.052 167.866 186.316 167.533C186.581 167.196 186.909 166.934 187.301 166.747C187.693 166.56 188.146 166.467 188.661 166.467C189.19 166.467 189.664 166.574 190.083 166.788C190.507 167.002 190.844 167.305 191.095 167.697C191.35 168.089 191.489 168.554 191.512 169.092H190.732C190.71 168.695 190.605 168.354 190.418 168.066C190.231 167.779 189.985 167.558 189.68 167.403C189.374 167.248 189.035 167.171 188.661 167.171C188.242 167.171 187.884 167.253 187.588 167.417C187.292 167.576 187.05 167.798 186.863 168.08C186.681 168.358 186.547 168.677 186.46 169.037C186.373 169.393 186.33 169.766 186.33 170.158V170.445C186.33 170.842 186.371 171.22 186.453 171.58C186.54 171.936 186.674 172.252 186.856 172.53C187.043 172.808 187.285 173.029 187.581 173.193C187.882 173.353 188.244 173.433 188.668 173.433ZM196.017 174.137C195.534 174.137 195.089 174.048 194.684 173.87C194.283 173.692 193.932 173.442 193.631 173.118C193.335 172.795 193.104 172.412 192.94 171.97C192.781 171.523 192.701 171.035 192.701 170.507V170.213C192.701 169.643 192.785 169.128 192.954 168.668C193.123 168.208 193.355 167.813 193.651 167.485C193.948 167.157 194.285 166.907 194.663 166.733C195.046 166.556 195.447 166.467 195.866 166.467C196.336 166.467 196.753 166.551 197.117 166.72C197.482 166.884 197.787 167.118 198.033 167.424C198.284 167.725 198.473 168.082 198.601 168.497C198.728 168.907 198.792 169.361 198.792 169.857V170.356H193.193V169.659H197.979V169.563C197.969 169.149 197.885 168.761 197.726 168.401C197.571 168.037 197.338 167.741 197.028 167.513C196.718 167.285 196.331 167.171 195.866 167.171C195.52 167.171 195.201 167.244 194.909 167.39C194.622 167.535 194.374 167.745 194.164 168.019C193.959 168.287 193.799 168.609 193.686 168.982C193.576 169.352 193.521 169.762 193.521 170.213V170.507C193.521 170.917 193.581 171.3 193.699 171.655C193.822 172.006 193.995 172.316 194.219 172.585C194.447 172.854 194.715 173.063 195.025 173.214C195.335 173.364 195.677 173.439 196.051 173.439C196.488 173.439 196.876 173.36 197.213 173.2C197.55 173.036 197.853 172.779 198.122 172.428L198.635 172.824C198.475 173.061 198.275 173.28 198.033 173.48C197.796 173.681 197.511 173.84 197.179 173.959C196.846 174.077 196.459 174.137 196.017 174.137ZM201.212 168.025V176.844H200.392V166.604H201.157L201.212 168.025ZM206.353 170.233V170.377C206.353 170.928 206.289 171.434 206.161 171.895C206.034 172.355 205.849 172.754 205.607 173.091C205.37 173.424 205.076 173.681 204.726 173.863C204.375 174.046 203.976 174.137 203.529 174.137C203.087 174.137 202.693 174.068 202.347 173.932C202 173.795 201.702 173.601 201.451 173.351C201.205 173.095 201.007 172.799 200.856 172.462C200.711 172.12 200.608 171.746 200.549 171.341V169.447C200.617 169.001 200.729 168.595 200.884 168.23C201.039 167.866 201.237 167.551 201.479 167.287C201.725 167.023 202.016 166.82 202.354 166.679C202.691 166.537 203.076 166.467 203.509 166.467C203.96 166.467 204.361 166.556 204.712 166.733C205.067 166.907 205.366 167.16 205.607 167.492C205.854 167.82 206.038 168.217 206.161 168.682C206.289 169.142 206.353 169.659 206.353 170.233ZM205.532 170.377V170.233C205.532 169.8 205.487 169.399 205.396 169.03C205.309 168.661 205.174 168.34 204.992 168.066C204.814 167.788 204.587 167.572 204.309 167.417C204.035 167.262 203.709 167.185 203.331 167.185C202.939 167.185 202.604 167.251 202.326 167.383C202.053 167.51 201.825 167.681 201.643 167.896C201.46 168.105 201.317 168.335 201.212 168.586C201.107 168.837 201.03 169.083 200.979 169.324V171.505C201.066 171.851 201.205 172.173 201.396 172.469C201.588 172.76 201.843 172.995 202.162 173.173C202.486 173.346 202.88 173.433 203.345 173.433C203.718 173.433 204.042 173.355 204.315 173.2C204.589 173.045 204.814 172.829 204.992 172.551C205.174 172.273 205.309 171.949 205.396 171.58C205.487 171.211 205.532 170.81 205.532 170.377ZM211.438 170.589H208.841L208.827 169.905H211.042C211.489 169.905 211.86 169.857 212.156 169.762C212.457 169.661 212.683 169.513 212.833 169.317C212.988 169.121 213.065 168.88 213.065 168.593C213.065 168.374 213.02 168.183 212.929 168.019C212.842 167.854 212.71 167.72 212.532 167.615C212.359 167.51 212.14 167.433 211.876 167.383C211.616 167.328 211.313 167.301 210.967 167.301H209.073V174H208.26V166.604H210.967C211.418 166.604 211.821 166.645 212.177 166.727C212.537 166.804 212.844 166.923 213.1 167.082C213.355 167.242 213.549 167.447 213.681 167.697C213.817 167.943 213.886 168.235 213.886 168.572C213.886 168.8 213.842 169.014 213.756 169.215C213.669 169.411 213.542 169.589 213.373 169.748C213.209 169.903 213.006 170.031 212.765 170.131C212.523 170.227 212.245 170.286 211.931 170.309L211.438 170.589ZM211.438 174H208.588L208.902 173.303H211.438C211.849 173.303 212.197 173.25 212.484 173.146C212.771 173.041 212.988 172.886 213.134 172.681C213.284 172.476 213.359 172.227 213.359 171.936C213.359 171.662 213.284 171.425 213.134 171.225C212.988 171.024 212.771 170.869 212.484 170.76C212.197 170.646 211.849 170.589 211.438 170.589H209.552L209.565 169.905H211.992L212.341 170.165C212.715 170.197 213.038 170.297 213.312 170.466C213.585 170.634 213.797 170.849 213.947 171.108C214.098 171.364 214.173 171.644 214.173 171.949C214.173 172.286 214.109 172.585 213.981 172.845C213.854 173.1 213.669 173.314 213.428 173.487C213.191 173.656 212.904 173.784 212.566 173.87C212.229 173.957 211.853 174 211.438 174ZM216.866 172.674L220.865 166.604H221.686V174H220.865V167.93L216.866 174H216.06V166.604H216.866V172.674ZM226.607 173.433C226.954 173.433 227.277 173.369 227.578 173.241C227.883 173.109 228.134 172.915 228.33 172.66C228.531 172.4 228.645 172.084 228.672 171.71H229.451C229.428 172.179 229.285 172.599 229.021 172.968C228.761 173.332 228.419 173.619 227.995 173.829C227.576 174.034 227.113 174.137 226.607 174.137C226.092 174.137 225.637 174.043 225.24 173.856C224.848 173.67 224.52 173.41 224.256 173.077C223.992 172.74 223.791 172.348 223.654 171.901C223.522 171.45 223.456 170.965 223.456 170.445V170.158C223.456 169.639 223.522 169.156 223.654 168.709C223.791 168.258 223.992 167.866 224.256 167.533C224.52 167.196 224.848 166.934 225.24 166.747C225.632 166.56 226.086 166.467 226.601 166.467C227.129 166.467 227.603 166.574 228.022 166.788C228.446 167.002 228.784 167.305 229.034 167.697C229.289 168.089 229.428 168.554 229.451 169.092H228.672C228.649 168.695 228.544 168.354 228.357 168.066C228.171 167.779 227.924 167.558 227.619 167.403C227.314 167.248 226.974 167.171 226.601 167.171C226.181 167.171 225.824 167.253 225.527 167.417C225.231 167.576 224.99 167.798 224.803 168.08C224.62 168.358 224.486 168.677 224.399 169.037C224.313 169.393 224.27 169.766 224.27 170.158V170.445C224.27 170.842 224.311 171.22 224.393 171.58C224.479 171.936 224.614 172.252 224.796 172.53C224.983 172.808 225.224 173.029 225.521 173.193C225.821 173.353 226.184 173.433 226.607 173.433ZM235.829 166.604H236.643L236.52 169.27C236.488 169.98 236.408 170.598 236.28 171.122C236.157 171.642 236.005 172.086 235.822 172.455C235.64 172.82 235.439 173.127 235.221 173.378C235.007 173.624 234.788 173.831 234.564 174H234.12L234.134 173.303L234.339 173.296C234.471 173.136 234.608 172.956 234.749 172.756C234.895 172.551 235.034 172.3 235.166 172.004C235.298 171.708 235.412 171.339 235.508 170.896C235.604 170.454 235.667 169.912 235.699 169.27L235.829 166.604ZM236.096 166.604H240.19V174H239.377V167.369H236.096V166.604ZM233.806 173.296H240.963V176.174H240.143V174H234.585V176.174H233.806V173.296ZM247.56 166.604V167.314H243.813V166.604H247.56ZM248.223 166.604V174H247.409V166.604H248.223ZM243.595 166.604H244.408L244.244 170.069C244.217 170.63 244.171 171.127 244.107 171.56C244.048 171.993 243.966 172.364 243.861 172.674C243.757 172.979 243.622 173.23 243.458 173.426C243.299 173.622 243.105 173.768 242.877 173.863C242.649 173.954 242.382 174 242.077 174H241.77V173.262L242.022 173.255C242.218 173.246 242.389 173.205 242.535 173.132C242.686 173.059 242.813 172.943 242.918 172.783C243.027 172.624 243.116 172.414 243.185 172.154C243.257 171.895 243.314 171.578 243.355 171.204C243.401 170.826 243.435 170.382 243.458 169.871L243.595 166.604ZM252.044 170.609H252.946L250.896 174H249.993L252.044 170.609ZM252.912 166.604H255.817V174H255.004V167.301H252.912C252.479 167.301 252.126 167.374 251.853 167.52C251.584 167.661 251.385 167.848 251.258 168.08C251.135 168.312 251.073 168.561 251.073 168.825C251.073 169.076 251.128 169.315 251.237 169.543C251.351 169.771 251.527 169.958 251.764 170.104C252.001 170.245 252.308 170.315 252.687 170.315H255.298V171.02H252.687C252.299 171.02 251.955 170.965 251.654 170.855C251.354 170.746 251.098 170.593 250.889 170.397C250.684 170.197 250.526 169.962 250.417 169.693C250.312 169.42 250.26 169.126 250.26 168.812C250.26 168.493 250.317 168.201 250.431 167.937C250.549 167.668 250.72 167.433 250.943 167.232C251.171 167.032 251.449 166.877 251.777 166.768C252.11 166.658 252.488 166.604 252.912 166.604ZM266.461 166.604V167.314H262.134V166.604H266.461ZM262.318 166.604V174H261.505V166.604H262.318ZM267.131 166.604V174H266.311V166.604H267.131ZM270.132 168.025V176.844H269.312V166.604H270.077L270.132 168.025ZM275.272 170.233V170.377C275.272 170.928 275.209 171.434 275.081 171.895C274.953 172.355 274.769 172.754 274.527 173.091C274.29 173.424 273.996 173.681 273.646 173.863C273.295 174.046 272.896 174.137 272.449 174.137C272.007 174.137 271.613 174.068 271.267 173.932C270.92 173.795 270.622 173.601 270.371 173.351C270.125 173.095 269.927 172.799 269.776 172.462C269.631 172.12 269.528 171.746 269.469 171.341V169.447C269.537 169.001 269.649 168.595 269.804 168.23C269.959 167.866 270.157 167.551 270.398 167.287C270.645 167.023 270.936 166.82 271.273 166.679C271.611 166.537 271.996 166.467 272.429 166.467C272.88 166.467 273.281 166.556 273.632 166.733C273.987 166.907 274.286 167.16 274.527 167.492C274.773 167.82 274.958 168.217 275.081 168.682C275.209 169.142 275.272 169.659 275.272 170.233ZM274.452 170.377V170.233C274.452 169.8 274.407 169.399 274.315 169.03C274.229 168.661 274.094 168.34 273.912 168.066C273.734 167.788 273.507 167.572 273.229 167.417C272.955 167.262 272.629 167.185 272.251 167.185C271.859 167.185 271.524 167.251 271.246 167.383C270.973 167.51 270.745 167.681 270.562 167.896C270.38 168.105 270.237 168.335 270.132 168.586C270.027 168.837 269.95 169.083 269.899 169.324V171.505C269.986 171.851 270.125 172.173 270.316 172.469C270.508 172.76 270.763 172.995 271.082 173.173C271.406 173.346 271.8 173.433 272.265 173.433C272.638 173.433 272.962 173.355 273.235 173.2C273.509 173.045 273.734 172.829 273.912 172.551C274.094 172.273 274.229 171.949 274.315 171.58C274.407 171.211 274.452 170.81 274.452 170.377ZM276.64 170.418V170.192C276.64 169.655 276.717 169.158 276.872 168.702C277.027 168.246 277.248 167.852 277.535 167.52C277.827 167.187 278.175 166.929 278.581 166.747C278.987 166.56 279.438 166.467 279.935 166.467C280.436 166.467 280.889 166.56 281.295 166.747C281.701 166.929 282.049 167.187 282.341 167.52C282.632 167.852 282.856 168.246 283.011 168.702C283.166 169.158 283.243 169.655 283.243 170.192V170.418C283.243 170.956 283.166 171.452 283.011 171.908C282.856 172.359 282.632 172.751 282.341 173.084C282.054 173.417 281.707 173.676 281.302 173.863C280.896 174.046 280.445 174.137 279.948 174.137C279.447 174.137 278.993 174.046 278.588 173.863C278.182 173.676 277.834 173.417 277.542 173.084C277.25 172.751 277.027 172.359 276.872 171.908C276.717 171.452 276.64 170.956 276.64 170.418ZM277.453 170.192V170.418C277.453 170.824 277.508 171.209 277.617 171.573C277.727 171.933 277.886 172.255 278.096 172.537C278.305 172.815 278.565 173.034 278.875 173.193C279.185 173.353 279.543 173.433 279.948 173.433C280.349 173.433 280.702 173.353 281.008 173.193C281.318 173.034 281.577 172.815 281.787 172.537C281.997 172.255 282.154 171.933 282.259 171.573C282.368 171.209 282.423 170.824 282.423 170.418V170.192C282.423 169.791 282.368 169.411 282.259 169.051C282.154 168.691 281.994 168.369 281.78 168.087C281.571 167.804 281.311 167.581 281.001 167.417C280.691 167.253 280.336 167.171 279.935 167.171C279.534 167.171 279.178 167.253 278.868 167.417C278.563 167.581 278.303 167.804 278.089 168.087C277.879 168.369 277.72 168.691 277.61 169.051C277.506 169.411 277.453 169.791 277.453 170.192ZM285.8 172.674L289.799 166.604H290.619V174H289.799V167.93L285.8 174H284.993V166.604H285.8V172.674ZM295.37 170.418H294.181V169.864H295.302C295.757 169.864 296.12 169.812 296.389 169.707C296.658 169.598 296.851 169.445 296.97 169.249C297.088 169.053 297.147 168.823 297.147 168.559C297.147 168.303 297.084 168.071 296.956 167.861C296.833 167.652 296.635 167.483 296.361 167.355C296.088 167.228 295.726 167.164 295.274 167.164C294.928 167.164 294.609 167.226 294.317 167.349C294.026 167.472 293.791 167.64 293.613 167.854C293.44 168.069 293.354 168.317 293.354 168.6H292.533C292.533 168.162 292.661 167.784 292.916 167.465C293.171 167.146 293.506 166.9 293.921 166.727C294.34 166.553 294.791 166.467 295.274 166.467C295.694 166.467 296.07 166.512 296.402 166.604C296.735 166.695 297.018 166.829 297.25 167.007C297.482 167.185 297.66 167.406 297.783 167.67C297.906 167.93 297.968 168.228 297.968 168.565C297.968 168.821 297.909 169.06 297.79 169.283C297.676 169.507 297.507 169.705 297.284 169.878C297.065 170.047 296.794 170.179 296.471 170.274C296.152 170.37 295.785 170.418 295.37 170.418ZM294.181 170.042H295.37C295.826 170.042 296.225 170.085 296.566 170.172C296.908 170.254 297.193 170.377 297.421 170.541C297.649 170.705 297.817 170.908 297.927 171.149C298.041 171.386 298.098 171.66 298.098 171.97C298.098 172.307 298.029 172.61 297.893 172.879C297.76 173.148 297.569 173.376 297.318 173.562C297.068 173.749 296.769 173.891 296.423 173.986C296.076 174.082 295.694 174.13 295.274 174.13C294.823 174.13 294.377 174.05 293.935 173.891C293.497 173.731 293.135 173.485 292.848 173.152C292.561 172.82 292.417 172.396 292.417 171.881H293.23C293.23 172.163 293.319 172.423 293.497 172.66C293.675 172.897 293.916 173.086 294.222 173.228C294.532 173.369 294.882 173.439 295.274 173.439C295.716 173.439 296.086 173.378 296.382 173.255C296.678 173.127 296.901 172.954 297.052 172.735C297.202 172.517 297.277 172.266 297.277 171.983C297.277 171.651 297.204 171.382 297.059 171.177C296.917 170.972 296.701 170.821 296.409 170.726C296.118 170.63 295.748 170.582 295.302 170.582H294.181V170.042ZM303.177 170.589H300.579L300.565 169.905H302.78C303.227 169.905 303.598 169.857 303.895 169.762C304.195 169.661 304.421 169.513 304.571 169.317C304.726 169.121 304.804 168.88 304.804 168.593C304.804 168.374 304.758 168.183 304.667 168.019C304.58 167.854 304.448 167.72 304.271 167.615C304.097 167.51 303.879 167.433 303.614 167.383C303.354 167.328 303.051 167.301 302.705 167.301H300.812V174H299.998V166.604H302.705C303.156 166.604 303.56 166.645 303.915 166.727C304.275 166.804 304.583 166.923 304.838 167.082C305.093 167.242 305.287 167.447 305.419 167.697C305.556 167.943 305.624 168.235 305.624 168.572C305.624 168.8 305.581 169.014 305.494 169.215C305.408 169.411 305.28 169.589 305.111 169.748C304.947 169.903 304.744 170.031 304.503 170.131C304.261 170.227 303.983 170.286 303.669 170.309L303.177 170.589ZM303.177 174H300.326L300.641 173.303H303.177C303.587 173.303 303.936 173.25 304.223 173.146C304.51 173.041 304.726 172.886 304.872 172.681C305.022 172.476 305.098 172.227 305.098 171.936C305.098 171.662 305.022 171.425 304.872 171.225C304.726 171.024 304.51 170.869 304.223 170.76C303.936 170.646 303.587 170.589 303.177 170.589H301.29L301.304 169.905H303.73L304.079 170.165C304.453 170.197 304.776 170.297 305.05 170.466C305.323 170.634 305.535 170.849 305.686 171.108C305.836 171.364 305.911 171.644 305.911 171.949C305.911 172.286 305.847 172.585 305.72 172.845C305.592 173.1 305.408 173.314 305.166 173.487C304.929 173.656 304.642 173.784 304.305 173.87C303.967 173.957 303.591 174 303.177 174ZM307.292 170.418V170.192C307.292 169.655 307.369 169.158 307.524 168.702C307.679 168.246 307.9 167.852 308.188 167.52C308.479 167.187 308.828 166.929 309.233 166.747C309.639 166.56 310.09 166.467 310.587 166.467C311.088 166.467 311.542 166.56 311.947 166.747C312.353 166.929 312.701 167.187 312.993 167.52C313.285 167.852 313.508 168.246 313.663 168.702C313.818 169.158 313.896 169.655 313.896 170.192V170.418C313.896 170.956 313.818 171.452 313.663 171.908C313.508 172.359 313.285 172.751 312.993 173.084C312.706 173.417 312.36 173.676 311.954 173.863C311.549 174.046 311.097 174.137 310.601 174.137C310.099 174.137 309.646 174.046 309.24 173.863C308.835 173.676 308.486 173.417 308.194 173.084C307.903 172.751 307.679 172.359 307.524 171.908C307.369 171.452 307.292 170.956 307.292 170.418ZM308.105 170.192V170.418C308.105 170.824 308.16 171.209 308.27 171.573C308.379 171.933 308.538 172.255 308.748 172.537C308.958 172.815 309.217 173.034 309.527 173.193C309.837 173.353 310.195 173.433 310.601 173.433C311.002 173.433 311.355 173.353 311.66 173.193C311.97 173.034 312.23 172.815 312.439 172.537C312.649 172.255 312.806 171.933 312.911 171.573C313.021 171.209 313.075 170.824 313.075 170.418V170.192C313.075 169.791 313.021 169.411 312.911 169.051C312.806 168.691 312.647 168.369 312.433 168.087C312.223 167.804 311.963 167.581 311.653 167.417C311.343 167.253 310.988 167.171 310.587 167.171C310.186 167.171 309.83 167.253 309.521 167.417C309.215 167.581 308.955 167.804 308.741 168.087C308.532 168.369 308.372 168.691 308.263 169.051C308.158 169.411 308.105 169.791 308.105 170.192ZM316.411 166.604H317.225L317.102 169.27C317.07 169.98 316.99 170.598 316.862 171.122C316.739 171.642 316.587 172.086 316.404 172.455C316.222 172.82 316.021 173.127 315.803 173.378C315.589 173.624 315.37 173.831 315.146 174H314.702L314.716 173.303L314.921 173.296C315.053 173.136 315.19 172.956 315.331 172.756C315.477 172.551 315.616 172.3 315.748 172.004C315.88 171.708 315.994 171.339 316.09 170.896C316.186 170.454 316.249 169.912 316.281 169.27L316.411 166.604ZM316.678 166.604H320.772V174H319.959V167.369H316.678V166.604ZM314.388 173.296H321.545V176.174H320.725V174H315.167V176.174H314.388V173.296ZM325.852 173.433C326.198 173.433 326.521 173.369 326.822 173.241C327.128 173.109 327.378 172.915 327.574 172.66C327.775 172.4 327.889 172.084 327.916 171.71H328.695C328.673 172.179 328.529 172.599 328.265 172.968C328.005 173.332 327.663 173.619 327.239 173.829C326.82 174.034 326.357 174.137 325.852 174.137C325.337 174.137 324.881 174.043 324.484 173.856C324.092 173.67 323.764 173.41 323.5 173.077C323.236 172.74 323.035 172.348 322.898 171.901C322.766 171.45 322.7 170.965 322.7 170.445V170.158C322.7 169.639 322.766 169.156 322.898 168.709C323.035 168.258 323.236 167.866 323.5 167.533C323.764 167.196 324.092 166.934 324.484 166.747C324.876 166.56 325.33 166.467 325.845 166.467C326.373 166.467 326.847 166.574 327.267 166.788C327.69 167.002 328.028 167.305 328.278 167.697C328.534 168.089 328.673 168.554 328.695 169.092H327.916C327.893 168.695 327.788 168.354 327.602 168.066C327.415 167.779 327.169 167.558 326.863 167.403C326.558 167.248 326.218 167.171 325.845 167.171C325.425 167.171 325.068 167.253 324.771 167.417C324.475 167.576 324.234 167.798 324.047 168.08C323.865 168.358 323.73 168.677 323.644 169.037C323.557 169.393 323.514 169.766 323.514 170.158V170.445C323.514 170.842 323.555 171.22 323.637 171.58C323.723 171.936 323.858 172.252 324.04 172.53C324.227 172.808 324.468 173.029 324.765 173.193C325.065 173.353 325.428 173.433 325.852 173.433ZM332.954 166.604V174H332.141V166.604H332.954ZM335.647 166.604V167.301H329.543V166.604H335.647ZM340.269 170.589H337.671L337.657 169.905H339.872C340.319 169.905 340.69 169.857 340.986 169.762C341.287 169.661 341.513 169.513 341.663 169.317C341.818 169.121 341.896 168.88 341.896 168.593C341.896 168.374 341.85 168.183 341.759 168.019C341.672 167.854 341.54 167.72 341.362 167.615C341.189 167.51 340.97 167.433 340.706 167.383C340.446 167.328 340.143 167.301 339.797 167.301H337.903V174H337.09V166.604H339.797C340.248 166.604 340.651 166.645 341.007 166.727C341.367 166.804 341.674 166.923 341.93 167.082C342.185 167.242 342.379 167.447 342.511 167.697C342.647 167.943 342.716 168.235 342.716 168.572C342.716 168.8 342.673 169.014 342.586 169.215C342.499 169.411 342.372 169.589 342.203 169.748C342.039 169.903 341.836 170.031 341.595 170.131C341.353 170.227 341.075 170.286 340.761 170.309L340.269 170.589ZM340.269 174H337.418L337.732 173.303H340.269C340.679 173.303 341.027 173.25 341.314 173.146C341.602 173.041 341.818 172.886 341.964 172.681C342.114 172.476 342.189 172.227 342.189 171.936C342.189 171.662 342.114 171.425 341.964 171.225C341.818 171.024 341.602 170.869 341.314 170.76C341.027 170.646 340.679 170.589 340.269 170.589H338.382L338.396 169.905H340.822L341.171 170.165C341.545 170.197 341.868 170.297 342.142 170.466C342.415 170.634 342.627 170.849 342.777 171.108C342.928 171.364 343.003 171.644 343.003 171.949C343.003 172.286 342.939 172.585 342.812 172.845C342.684 173.1 342.499 173.314 342.258 173.487C342.021 173.656 341.734 173.784 341.396 173.87C341.059 173.957 340.683 174 340.269 174ZM347.692 174.137C347.209 174.137 346.765 174.048 346.359 173.87C345.958 173.692 345.607 173.442 345.307 173.118C345.01 172.795 344.78 172.412 344.616 171.97C344.457 171.523 344.377 171.035 344.377 170.507V170.213C344.377 169.643 344.461 169.128 344.63 168.668C344.799 168.208 345.031 167.813 345.327 167.485C345.623 167.157 345.961 166.907 346.339 166.733C346.722 166.556 347.123 166.467 347.542 166.467C348.011 166.467 348.428 166.551 348.793 166.72C349.158 166.884 349.463 167.118 349.709 167.424C349.96 167.725 350.149 168.082 350.276 168.497C350.404 168.907 350.468 169.361 350.468 169.857V170.356H344.869V169.659H349.654V169.563C349.645 169.149 349.561 168.761 349.401 168.401C349.246 168.037 349.014 167.741 348.704 167.513C348.394 167.285 348.007 167.171 347.542 167.171C347.196 167.171 346.877 167.244 346.585 167.39C346.298 167.535 346.049 167.745 345.84 168.019C345.635 168.287 345.475 168.609 345.361 168.982C345.252 169.352 345.197 169.762 345.197 170.213V170.507C345.197 170.917 345.257 171.3 345.375 171.655C345.498 172.006 345.671 172.316 345.895 172.585C346.122 172.854 346.391 173.063 346.701 173.214C347.011 173.364 347.353 173.439 347.727 173.439C348.164 173.439 348.551 173.36 348.889 173.2C349.226 173.036 349.529 172.779 349.798 172.428L350.311 172.824C350.151 173.061 349.951 173.28 349.709 173.48C349.472 173.681 349.187 173.84 348.854 173.959C348.522 174.077 348.134 174.137 347.692 174.137ZM357.126 169.912V170.609H352.737V169.912H357.126ZM352.949 166.604V174H352.136V166.604H352.949ZM357.755 166.604V174H356.935V166.604H357.755ZM365.001 169.912V170.609H360.612V169.912H365.001ZM360.824 166.604V174H360.011V166.604H360.824ZM365.63 166.604V174H364.81V166.604H365.63ZM367.38 170.418V170.192C367.38 169.655 367.457 169.158 367.612 168.702C367.767 168.246 367.988 167.852 368.275 167.52C368.567 167.187 368.916 166.929 369.321 166.747C369.727 166.56 370.178 166.467 370.675 166.467C371.176 166.467 371.63 166.56 372.035 166.747C372.441 166.929 372.789 167.187 373.081 167.52C373.373 167.852 373.596 168.246 373.751 168.702C373.906 169.158 373.983 169.655 373.983 170.192V170.418C373.983 170.956 373.906 171.452 373.751 171.908C373.596 172.359 373.373 172.751 373.081 173.084C372.794 173.417 372.448 173.676 372.042 173.863C371.636 174.046 371.185 174.137 370.688 174.137C370.187 174.137 369.734 174.046 369.328 173.863C368.923 173.676 368.574 173.417 368.282 173.084C367.991 172.751 367.767 172.359 367.612 171.908C367.457 171.452 367.38 170.956 367.38 170.418ZM368.193 170.192V170.418C368.193 170.824 368.248 171.209 368.357 171.573C368.467 171.933 368.626 172.255 368.836 172.537C369.046 172.815 369.305 173.034 369.615 173.193C369.925 173.353 370.283 173.433 370.688 173.433C371.09 173.433 371.443 173.353 371.748 173.193C372.058 173.034 372.318 172.815 372.527 172.537C372.737 172.255 372.894 171.933 372.999 171.573C373.108 171.209 373.163 170.824 373.163 170.418V170.192C373.163 169.791 373.108 169.411 372.999 169.051C372.894 168.691 372.735 168.369 372.521 168.087C372.311 167.804 372.051 167.581 371.741 167.417C371.431 167.253 371.076 167.171 370.675 167.171C370.274 167.171 369.918 167.253 369.608 167.417C369.303 167.581 369.043 167.804 368.829 168.087C368.619 168.369 368.46 168.691 368.351 169.051C368.246 169.411 368.193 169.791 368.193 170.192ZM380.286 166.604V167.314H376.54V174H375.727V166.604H380.286ZM380.997 170.418V170.192C380.997 169.655 381.075 169.158 381.229 168.702C381.384 168.246 381.605 167.852 381.893 167.52C382.184 167.187 382.533 166.929 382.938 166.747C383.344 166.56 383.795 166.467 384.292 166.467C384.793 166.467 385.247 166.56 385.652 166.747C386.058 166.929 386.407 167.187 386.698 167.52C386.99 167.852 387.213 168.246 387.368 168.702C387.523 169.158 387.601 169.655 387.601 170.192V170.418C387.601 170.956 387.523 171.452 387.368 171.908C387.213 172.359 386.99 172.751 386.698 173.084C386.411 173.417 386.065 173.676 385.659 173.863C385.254 174.046 384.802 174.137 384.306 174.137C383.804 174.137 383.351 174.046 382.945 173.863C382.54 173.676 382.191 173.417 381.899 173.084C381.608 172.751 381.384 172.359 381.229 171.908C381.075 171.452 380.997 170.956 380.997 170.418ZM381.811 170.192V170.418C381.811 170.824 381.865 171.209 381.975 171.573C382.084 171.933 382.243 172.255 382.453 172.537C382.663 172.815 382.923 173.034 383.232 173.193C383.542 173.353 383.9 173.433 384.306 173.433C384.707 173.433 385.06 173.353 385.365 173.193C385.675 173.034 385.935 172.815 386.145 172.537C386.354 172.255 386.511 171.933 386.616 171.573C386.726 171.209 386.78 170.824 386.78 170.418V170.192C386.78 169.791 386.726 169.411 386.616 169.051C386.511 168.691 386.352 168.369 386.138 168.087C385.928 167.804 385.668 167.581 385.358 167.417C385.049 167.253 384.693 167.171 384.292 167.171C383.891 167.171 383.535 167.253 383.226 167.417C382.92 167.581 382.66 167.804 382.446 168.087C382.237 168.369 382.077 168.691 381.968 169.051C381.863 169.411 381.811 169.791 381.811 170.192ZM397.513 163.384H398.217C398.217 163.726 398.155 164.01 398.032 164.238C397.914 164.466 397.745 164.651 397.526 164.792C397.308 164.933 397.05 165.045 396.754 165.127C396.462 165.204 396.143 165.271 395.797 165.325C395.373 165.389 394.983 165.528 394.628 165.742C394.277 165.956 393.976 166.25 393.726 166.624C393.475 166.993 393.286 167.451 393.158 167.998C393.035 168.54 392.985 169.176 393.008 169.905V170.541H392.304V169.905C392.304 169.103 392.381 168.392 392.536 167.772C392.696 167.148 392.921 166.615 393.213 166.173C393.509 165.731 393.86 165.38 394.266 165.12C394.676 164.856 395.129 164.683 395.626 164.601C396.091 164.528 396.46 164.439 396.733 164.334C397.011 164.229 397.21 164.099 397.328 163.944C397.451 163.789 397.513 163.603 397.513 163.384ZM395.694 167.089C396.177 167.089 396.613 167.171 397 167.335C397.387 167.499 397.718 167.731 397.991 168.032C398.269 168.328 398.481 168.679 398.627 169.085C398.777 169.486 398.853 169.926 398.853 170.404V170.623C398.853 171.133 398.775 171.603 398.62 172.031C398.47 172.46 398.251 172.831 397.964 173.146C397.681 173.46 397.337 173.704 396.932 173.877C396.531 174.05 396.082 174.137 395.585 174.137C395.084 174.137 394.632 174.05 394.231 173.877C393.83 173.704 393.486 173.46 393.199 173.146C392.912 172.831 392.691 172.46 392.536 172.031C392.381 171.603 392.304 171.133 392.304 170.623V170.404C392.304 170.272 392.317 170.142 392.345 170.015C392.377 169.887 392.415 169.762 392.461 169.639C392.507 169.511 392.552 169.386 392.598 169.263C392.757 168.848 392.983 168.479 393.274 168.155C393.566 167.827 393.915 167.567 394.32 167.376C394.73 167.185 395.188 167.089 395.694 167.089ZM395.571 167.786C395.038 167.786 394.589 167.909 394.225 168.155C393.865 168.397 393.591 168.718 393.404 169.119C393.217 169.516 393.124 169.944 393.124 170.404V170.623C393.124 171.001 393.176 171.359 393.281 171.696C393.386 172.034 393.541 172.334 393.746 172.599C393.956 172.858 394.213 173.063 394.519 173.214C394.824 173.364 395.179 173.439 395.585 173.439C395.986 173.439 396.339 173.364 396.645 173.214C396.95 173.063 397.205 172.858 397.41 172.599C397.615 172.334 397.77 172.034 397.875 171.696C397.98 171.359 398.032 171.001 398.032 170.623V170.404C398.032 170.058 397.98 169.728 397.875 169.413C397.77 169.099 397.613 168.821 397.403 168.579C397.198 168.333 396.941 168.139 396.631 167.998C396.326 167.857 395.972 167.786 395.571 167.786ZM401.163 172.674L405.162 166.604H405.982V174H405.162V167.93L401.163 174H400.356V166.604H401.163V172.674ZM410.733 170.418H409.544V169.864H410.665C411.121 169.864 411.483 169.812 411.752 169.707C412.021 169.598 412.215 169.445 412.333 169.249C412.451 169.053 412.511 168.823 412.511 168.559C412.511 168.303 412.447 168.071 412.319 167.861C412.196 167.652 411.998 167.483 411.725 167.355C411.451 167.228 411.089 167.164 410.638 167.164C410.291 167.164 409.972 167.226 409.681 167.349C409.389 167.472 409.154 167.64 408.977 167.854C408.803 168.069 408.717 168.317 408.717 168.6H407.896C407.896 168.162 408.024 167.784 408.279 167.465C408.535 167.146 408.869 166.9 409.284 166.727C409.703 166.553 410.155 166.467 410.638 166.467C411.057 166.467 411.433 166.512 411.766 166.604C412.098 166.695 412.381 166.829 412.613 167.007C412.846 167.185 413.023 167.406 413.146 167.67C413.27 167.93 413.331 168.228 413.331 168.565C413.331 168.821 413.272 169.06 413.153 169.283C413.039 169.507 412.871 169.705 412.647 169.878C412.429 170.047 412.158 170.179 411.834 170.274C411.515 170.37 411.148 170.418 410.733 170.418ZM409.544 170.042H410.733C411.189 170.042 411.588 170.085 411.93 170.172C412.271 170.254 412.556 170.377 412.784 170.541C413.012 170.705 413.181 170.908 413.29 171.149C413.404 171.386 413.461 171.66 413.461 171.97C413.461 172.307 413.393 172.61 413.256 172.879C413.124 173.148 412.932 173.376 412.682 173.562C412.431 173.749 412.132 173.891 411.786 173.986C411.44 174.082 411.057 174.13 410.638 174.13C410.187 174.13 409.74 174.05 409.298 173.891C408.86 173.731 408.498 173.485 408.211 173.152C407.924 172.82 407.78 172.396 407.78 171.881H408.594C408.594 172.163 408.683 172.423 408.86 172.66C409.038 172.897 409.28 173.086 409.585 173.228C409.895 173.369 410.246 173.439 410.638 173.439C411.08 173.439 411.449 173.378 411.745 173.255C412.041 173.127 412.265 172.954 412.415 172.735C412.565 172.517 412.641 172.266 412.641 171.983C412.641 171.651 412.568 171.382 412.422 171.177C412.281 170.972 412.064 170.821 411.772 170.726C411.481 170.63 411.112 170.582 410.665 170.582H409.544V170.042ZM420.317 169.912V170.609H415.929V169.912H420.317ZM416.141 166.604V174H415.327V166.604H416.141ZM420.946 166.604V174H420.126V166.604H420.946ZM426.005 174.137C425.522 174.137 425.077 174.048 424.672 173.87C424.271 173.692 423.92 173.442 423.619 173.118C423.323 172.795 423.093 172.412 422.929 171.97C422.769 171.523 422.689 171.035 422.689 170.507V170.213C422.689 169.643 422.774 169.128 422.942 168.668C423.111 168.208 423.343 167.813 423.64 167.485C423.936 167.157 424.273 166.907 424.651 166.733C425.034 166.556 425.435 166.467 425.854 166.467C426.324 166.467 426.741 166.551 427.105 166.72C427.47 166.884 427.775 167.118 428.021 167.424C428.272 167.725 428.461 168.082 428.589 168.497C428.716 168.907 428.78 169.361 428.78 169.857V170.356H423.182V169.659H427.967V169.563C427.958 169.149 427.873 168.761 427.714 168.401C427.559 168.037 427.326 167.741 427.017 167.513C426.707 167.285 426.319 167.171 425.854 167.171C425.508 167.171 425.189 167.244 424.897 167.39C424.61 167.535 424.362 167.745 424.152 168.019C423.947 168.287 423.788 168.609 423.674 168.982C423.564 169.352 423.51 169.762 423.51 170.213V170.507C423.51 170.917 423.569 171.3 423.688 171.655C423.811 172.006 423.984 172.316 424.207 172.585C424.435 172.854 424.704 173.063 425.014 173.214C425.324 173.364 425.665 173.439 426.039 173.439C426.477 173.439 426.864 173.36 427.201 173.2C427.538 173.036 427.841 172.779 428.11 172.428L428.623 172.824C428.464 173.061 428.263 173.28 428.021 173.48C427.785 173.681 427.5 173.84 427.167 173.959C426.834 174.077 426.447 174.137 426.005 174.137ZM433.121 173.433C433.467 173.433 433.791 173.369 434.092 173.241C434.397 173.109 434.648 172.915 434.844 172.66C435.044 172.4 435.158 172.084 435.186 171.71H435.965C435.942 172.179 435.799 172.599 435.534 172.968C435.274 173.332 434.933 173.619 434.509 173.829C434.09 174.034 433.627 174.137 433.121 174.137C432.606 174.137 432.15 174.043 431.754 173.856C431.362 173.67 431.034 173.41 430.77 173.077C430.505 172.74 430.305 172.348 430.168 171.901C430.036 171.45 429.97 170.965 429.97 170.445V170.158C429.97 169.639 430.036 169.156 430.168 168.709C430.305 168.258 430.505 167.866 430.77 167.533C431.034 167.196 431.362 166.934 431.754 166.747C432.146 166.56 432.599 166.467 433.114 166.467C433.643 166.467 434.117 166.574 434.536 166.788C434.96 167.002 435.297 167.305 435.548 167.697C435.803 168.089 435.942 168.554 435.965 169.092H435.186C435.163 168.695 435.058 168.354 434.871 168.066C434.684 167.779 434.438 167.558 434.133 167.403C433.827 167.248 433.488 167.171 433.114 167.171C432.695 167.171 432.337 167.253 432.041 167.417C431.745 167.576 431.503 167.798 431.316 168.08C431.134 168.358 431 168.677 430.913 169.037C430.826 169.393 430.783 169.766 430.783 170.158V170.445C430.783 170.842 430.824 171.22 430.906 171.58C430.993 171.936 431.127 172.252 431.31 172.53C431.496 172.808 431.738 173.029 432.034 173.193C432.335 173.353 432.697 173.433 433.121 173.433ZM442.11 172.674V168.859C442.11 168.508 442.037 168.205 441.892 167.95C441.746 167.695 441.532 167.499 441.249 167.362C440.966 167.226 440.618 167.157 440.203 167.157C439.82 167.157 439.479 167.226 439.178 167.362C438.882 167.494 438.647 167.674 438.474 167.902C438.305 168.126 438.221 168.374 438.221 168.647L437.4 168.641C437.4 168.363 437.469 168.094 437.605 167.834C437.742 167.574 437.936 167.342 438.187 167.137C438.437 166.932 438.736 166.77 439.082 166.651C439.433 166.528 439.818 166.467 440.237 166.467C440.766 166.467 441.231 166.556 441.632 166.733C442.037 166.911 442.354 167.178 442.582 167.533C442.81 167.889 442.924 168.335 442.924 168.873V172.448C442.924 172.703 442.942 172.968 442.979 173.241C443.02 173.515 443.076 173.74 443.149 173.918V174H442.281C442.227 173.836 442.183 173.631 442.151 173.385C442.124 173.134 442.11 172.897 442.11 172.674ZM442.302 169.693L442.315 170.322H440.709C440.29 170.322 439.914 170.361 439.581 170.438C439.253 170.511 438.975 170.621 438.747 170.767C438.519 170.908 438.344 171.079 438.221 171.279C438.102 171.48 438.043 171.708 438.043 171.963C438.043 172.227 438.109 172.469 438.241 172.688C438.378 172.906 438.569 173.082 438.815 173.214C439.066 173.341 439.362 173.405 439.704 173.405C440.16 173.405 440.561 173.321 440.907 173.152C441.258 172.984 441.548 172.763 441.775 172.489C442.003 172.216 442.156 171.917 442.233 171.594L442.589 172.065C442.53 172.293 442.42 172.528 442.261 172.77C442.106 173.007 441.903 173.23 441.652 173.439C441.402 173.645 441.105 173.813 440.764 173.945C440.426 174.073 440.044 174.137 439.615 174.137C439.132 174.137 438.711 174.046 438.351 173.863C437.995 173.681 437.717 173.433 437.517 173.118C437.321 172.799 437.223 172.439 437.223 172.038C437.223 171.674 437.3 171.348 437.455 171.061C437.61 170.769 437.833 170.523 438.125 170.322C438.421 170.117 438.777 169.962 439.191 169.857C439.611 169.748 440.08 169.693 440.6 169.693H442.302Z" fill="#2E518B"/>
<line opacity="0.6" x1="78" y1="153.5" x2="448" y2="153.5" stroke="#2E518B"/>
<path fill-rule="evenodd" clip-rule="evenodd" d="M145.28 41.5612C132.746 49.1294 121.954 55.6349 121.298 56.0181L120.105 56.7151L120.103 85.478L120.102 114.241L121.456 115.086C122.2 115.551 131.272 121.069 141.615 127.35C151.957 133.63 162.25 139.894 164.488 141.27L168.557 143.771L173.572 140.646C176.33 138.927 184.72 133.756 192.215 129.154C199.711 124.552 208.282 119.27 211.261 117.416L216.679 114.044L216.597 85.2491L216.516 56.4543L205.998 50.1594C176.107 32.2698 168.566 27.7927 168.329 27.7969C168.186 27.7991 157.814 33.993 145.28 41.5612ZM160.207 43.5634C156.058 46.0508 148.779 50.3805 144.031 53.1849C139.284 55.989 135.399 58.3642 135.399 58.4623C135.399 58.5607 137.084 59.6377 139.144 60.856C144.001 63.7281 158.521 72.3742 162.786 74.9345L166.108 76.929L171.073 73.8846C173.803 72.2103 179.236 68.9054 183.145 66.5402C187.054 64.1749 190.695 61.8662 191.236 61.4098C193.875 59.1833 193.691 54.9359 190.858 52.6739C189.29 51.4218 168.574 38.9713 168.122 39.0093C167.917 39.0262 164.356 41.0757 160.207 43.5634ZM167.23 49.9258C165.811 50.5982 152.611 58.5901 152.612 58.7767C152.612 58.925 163.106 65.5124 165.217 66.6901L165.912 67.0771L172.25 63.2264C175.735 61.1085 178.917 59.0692 179.319 58.6946L180.052 58.0132L179.957 56.8979L179.862 55.7825L174.922 52.8199C169.724 49.7027 168.597 49.2786 167.23 49.9258ZM233.174 81.1635L233.09 102.256H236.157H239.224L239.435 100.929L239.647 99.6022L240.512 100.432C240.988 100.888 242.218 101.647 243.245 102.118L245.113 102.975L247.388 102.826L249.664 102.676L251.286 101.847C255.964 99.4593 258.469 92.4348 257.499 84.4313C256.849 79.0715 254.932 75.6299 251.698 74.0137L250.017 73.1738H247.63H245.243L243.882 73.8348C243.133 74.1981 242.084 74.9942 241.55 75.6037L240.58 76.7117V68.3912V60.0708H236.919H233.258L233.174 81.1635ZM130.313 88.1398L130.327 109.767L147.242 119.993C156.545 125.618 164.284 130.268 164.439 130.327C164.86 130.485 164.793 113.871 164.367 112.323C164.161 111.579 163.516 110.568 162.822 109.905L161.63 108.765L162.532 108.246C163.028 107.96 163.73 107.251 164.091 106.669L164.748 105.612L164.547 97.6223C164.436 93.228 164.214 89.1098 164.053 88.4706L163.761 87.3086L162.409 86.1993C160.388 84.5409 150.609 78.5049 135.32 69.4769L130.3 66.5127L130.313 88.1398ZM201.217 67.0474C200.516 67.3753 196.858 69.5197 193.089 71.813C189.32 74.1061 183.368 77.7264 179.862 79.8583L173.487 83.7343L173.328 106.738C173.24 119.389 173.197 129.741 173.231 129.741C173.265 129.741 175.273 128.545 177.693 127.084L182.093 124.426L182.194 118.055L182.294 111.684L191.861 105.772C201.75 99.6606 204.59 97.5005 206.082 94.9547L206.954 93.4677V81.4691V69.4705L206.392 68.6101C205.162 66.7281 203.18 66.1295 201.217 67.0474ZM268.094 73.6162C265.395 74.4982 262.675 76.8587 261.345 79.4732C259.767 82.5742 259.128 89.3945 260.059 93.2018C261.02 97.1324 263.482 100.253 266.875 101.84L268.788 102.735L272.134 102.732L275.481 102.729L277.472 101.81C282.024 99.7098 284.555 94.7284 284.562 87.8538C284.569 81.4771 281.807 76.287 277.293 74.1988L275.481 73.3605L272.453 73.271C270.528 73.2138 268.94 73.3397 268.094 73.6162ZM320.401 73.7779C319.688 74.1026 318.578 74.8325 317.933 75.4004L316.761 76.4324L316.613 76.0016C316.531 75.7647 316.423 75.1393 316.372 74.612L316.278 73.6532L313.171 73.5618L310.063 73.4704V93.2964V113.122H313.728H317.394V106.558V99.9933L318.267 100.805C318.747 101.252 319.644 101.869 320.259 102.176L321.378 102.736L323.928 102.734L326.478 102.732L328.009 101.949C330.932 100.456 333.273 97.1985 334.219 93.3079C335.221 89.1893 334.945 83.2728 333.581 79.6171L332.908 77.8127L331.127 76.0287L329.346 74.2451L327.775 73.7095C326.877 73.403 325.241 73.1767 323.951 73.1809L321.697 73.1879L320.401 73.7779ZM347.915 73.6286C346.203 74.2416 345.139 75.0118 344.535 76.0754C343.98 77.054 343.591 77.2799 343.615 76.6094C343.623 76.3899 343.607 75.5989 343.58 74.8517L343.53 73.4934H340.502H337.474V87.8749V102.256H340.98H344.486V93.3552V84.454L345.211 83.3757C345.609 82.7826 346.399 81.9836 346.967 81.6001C348.081 80.8475 350.737 80.3406 351.798 80.6784L352.454 80.8871V77.0303V73.1738L350.781 73.1879C349.86 73.1956 348.571 73.394 347.915 73.6286ZM360.369 73.9159C357.275 75.223 355.245 77.3851 353.79 80.9232L352.969 82.9213L352.839 87.2357L352.709 91.5501L353.245 93.6156C353.906 96.1592 354.876 97.8575 356.662 99.5929C358.451 101.332 360.24 102.228 362.803 102.668L364.885 103.026L367.129 102.64C372.719 101.679 376.099 98.1439 377.165 92.1439C377.986 87.524 377.607 83.6873 375.978 80.1278L374.992 77.9734L373.285 76.3547C372.346 75.4643 370.897 74.4279 370.064 74.0511L368.55 73.3662L365.363 73.2598L362.175 73.1531L360.369 73.9159ZM283.525 74.5222C283.87 75.099 285.51 77.728 287.17 80.3646C288.829 83.0012 290.562 85.8056 291.02 86.5965L291.854 88.0347L287.588 95.1455L283.323 102.256H287.235H291.148L292.708 98.9806C293.566 97.179 294.578 95.1519 294.957 94.4763L295.646 93.2475L297.994 97.7351L300.342 102.222L304.406 102.319C306.642 102.373 308.47 102.327 308.47 102.219C308.47 102.111 306.591 99.0918 304.296 95.5111C302.001 91.9301 299.991 88.7531 299.83 88.4508L299.537 87.9014L303.002 81.7359C304.908 78.3451 306.706 75.1032 306.998 74.5321L307.529 73.4934L303.776 73.4992L300.023 73.5053L298.142 77.8935C297.107 80.3074 296.157 82.4007 296.03 82.5454C295.904 82.6902 294.725 80.7487 293.411 78.231L291.022 73.6532L286.959 73.5634L282.896 73.4739L283.525 74.5222ZM243.821 79.5803C243.237 79.7094 242.346 80.2121 241.841 80.6973L240.923 81.5793L240.559 83.2105C240.344 84.1718 240.245 86.6119 240.316 89.1545L240.437 93.4677L240.993 94.5034C241.801 96.0081 242.95 96.6421 244.852 96.6322C247.084 96.6207 248.324 95.8857 249.233 94.0356L249.983 92.5089V87.8749V83.2409L249.345 81.9833C248.281 79.8846 246.315 79.029 243.821 79.5803ZM270.926 79.5685C269.61 79.8711 268.745 80.6477 267.9 82.2821L267.239 83.5604L267.099 87.2645L266.96 90.9685L267.474 92.7435L267.989 94.5185L269.082 95.4804C271.781 97.8566 275.364 96.7182 276.649 93.0762C276.917 92.3155 277.074 90.3942 277.074 87.8749L277.073 83.88L276.277 82.2875C275.162 80.0565 273.181 79.0501 270.926 79.5685ZM320.64 79.5525C319.096 79.9331 318.078 81.0632 317.508 83.0312L317.004 84.7688L317.126 88.9637L317.248 93.1589L317.879 94.2385C318.226 94.8326 318.907 95.6159 319.394 95.9796L320.279 96.6409H322.015H323.752L324.637 95.9924C325.934 95.0416 326.698 93.2254 327.071 90.2079L327.401 87.5352L327.033 84.9989C326.83 83.6039 326.44 82.0287 326.167 81.4988C325.338 79.8922 322.836 79.0111 320.64 79.5525ZM363.815 79.5755C362.608 79.937 361.773 80.7289 360.962 82.2821L360.294 83.5604L360.162 87.0561C360.083 89.1286 360.185 91.251 360.412 92.2695C361.284 96.1765 364.864 97.9064 367.79 95.8339C370.308 94.0496 371.096 86.0404 369.156 81.9421C368.233 79.9907 365.891 78.9533 363.815 79.5755ZM192.771 82.0328C190.93 83.1923 187.884 85.0887 186.002 86.2475L182.581 88.3543L182.496 94.986C182.45 98.6332 182.427 101.617 182.445 101.617C182.802 101.616 196.416 92.9531 197.132 92.2718C198.698 90.7815 198.891 89.9813 198.773 85.4786L198.667 81.4262L197.773 80.6557C197.281 80.2319 196.707 79.8941 196.498 79.905C196.288 79.9159 194.611 80.8734 192.771 82.0328ZM139.296 86.7848L139.383 91.7665L146.853 96.3724C150.961 98.9055 154.651 100.978 155.052 100.978H155.782L156.305 99.9633L156.828 98.9486L156.692 96.3404L156.555 93.7323L155.92 92.6412L155.285 91.5501L147.494 86.7007C143.208 84.0334 139.591 81.8401 139.455 81.827C139.319 81.8136 139.247 84.0446 139.296 86.7848ZM139.235 105.031L139.246 109.447L147.266 114.287C151.676 116.948 155.462 119.058 155.679 118.975C156.714 118.577 157.128 114.302 156.317 112.393C155.689 110.915 155.097 110.473 147.67 105.937C143.989 103.688 140.582 101.571 140.101 101.232L139.224 100.615L139.235 105.031Z" fill="#2E518B"/>
</svg>
